<?xml version="1.0" encoding="UTF-8" standalone="no"?>
<!DOCTYPE svg PUBLIC "-//W3C//DTD SVG 1.1//EN" "http://www.w3.org/Graphics/SVG/1.1/DTD/svg11.dtd">
<svg width="100%" height="100%" viewBox="0 0 3104 1376" version="1.1" xmlns="http://www.w3.org/2000/svg" xmlns:xlink="http://www.w3.org/1999/xlink" xml:space="preserve" xmlns:serif="http://www.serif.com/" style="fill-rule:evenodd;clip-rule:evenodd;stroke-linejoin:round;stroke-miterlimit:2;">
    <g id="Fundo" transform="matrix(3.03125,0,0,3.03125,0,0)">
        <path d="M259.418,165.084C291.808,154.19 309.128,135.015 324.714,124.878C325.013,124.683 325.15,124.963 328.693,122.86C353.334,108.235 403.572,102.72 437.177,142.754C454.095,162.909 454.391,186.435 454.442,190.496C453.922,194.488 454.118,222.421 425.129,243.006C385.061,271.459 336.307,242.965 329.711,239.11C304.479,224.363 292.036,208.077 258.473,201.655C255.967,201.22 256.045,201.244 253.531,201.113C243.099,199.806 243.118,199.841 229.524,200.746C227.86,201.044 226.195,201.341 224.531,201.639C224.054,201.738 224.058,201.679 218.556,202.78C212.843,204.549 183.144,211.673 169.903,239.68C153.254,274.897 188.008,306.68 221.311,287.203C245.425,273.101 238.329,237.641 219.326,234.752C219.015,234.704 218.657,234.507 218.387,234.668C217.643,235.111 218.142,235.5 217.384,235.909C216.896,236.173 216.944,235.448 216.457,235.711C215.258,233.159 215.51,233.035 215.716,232.933C221.948,229.852 246.256,239.45 249.124,257.581C256.299,302.949 199.655,327.022 170.933,294.137C130.286,247.596 185.044,192.401 233.516,191.943C305.739,191.261 319.687,230.679 364.62,243.016C374.666,245.775 391.041,245.693 395.538,244.67C452.677,231.672 463.208,167.793 414.749,133.161C361.826,95.339 311.569,143.743 298.405,152.349C275.349,167.422 273.903,164.477 271.98,165.869C271.712,166.063 272.268,166.666 272,166.86C271.414,166.867 270.829,166.875 270.243,166.883C262.763,166.746 262.197,166.789 261.5,166.842L260.5,166.849L259.418,165.084Z" style="fill:rgb(251,197,128);fill-opacity:1;"/>
        <path d="M774.399,165.079C802.487,154.74 821.744,136.421 836.717,125.813C838.998,124.198 882.557,96.331 928.246,123.923C949.911,137.008 970.501,163.829 967.5,194.5C967.21,197.46 967.276,197.392 967.043,200.416C966.755,201.415 966.466,202.414 966.178,203.413C965.499,205.623 964.986,209.749 960.917,217.698C946.557,245.756 902.241,277.253 836.289,234.813C807.81,216.487 798.348,204.851 767.528,201.084C761.659,200.379 761.685,199.248 742.523,200.744C737.032,201.749 737.08,201.664 731.579,202.844C719.071,206.88 699.946,212.817 687.144,233.266C659.701,277.1 709.936,310.62 740.203,283.173C759.996,265.223 748.264,236.379 732.322,234.713C730.776,234.551 730.676,234.534 730.097,233.114C730.024,232.934 730.646,232.956 730.572,232.776C731.876,232.887 733.191,232.805 734.495,232.916C750.585,234.293 761.176,246.763 763.131,258.568C770.236,301.454 712.077,329.052 682.984,292.089C645.645,244.648 699.328,194.161 744.528,191.982C803.153,189.155 830.41,220.995 858.639,235.217C864.564,238.202 907.764,259.968 941.285,228.286C985.235,186.748 940.039,122.916 892.526,119.194C844.159,115.406 827.478,149.59 785.917,165.851C785.808,166.307 785.698,166.764 785.588,167.22C784.795,167.07 779.481,166.064 775.5,166.813L774.399,165.079Z" style="fill:rgb(163,110,75);fill-opacity:1;"/>
        <path d="M553.026,231.509C552.814,230.428 551.141,221.916 546.612,219.324C542.539,216.993 535.445,217.251 540.223,220.788C548.349,226.805 543.831,239.313 536.499,241.498C512.105,248.768 500.964,216.876 518.873,202.977C545.909,181.994 583.796,216.953 563.915,248.745C544.076,280.469 495.348,261.397 486.435,258.707C453.013,248.619 434.224,263.292 430.598,262.167C428.305,261.456 434.393,258.036 436.44,256.425C480.117,222.074 492.523,181.232 444.146,114.749C402.425,57.415 438.733,25.43 461.521,26.164C471.982,26.501 474.41,35.541 466.488,34.617C464.313,34.364 449.014,32.579 441.957,46.739C426.58,77.595 455.031,107.32 468.321,129.602C515.963,209.476 456.044,243.174 467.507,242.38C489.839,240.833 507.37,252.559 525.5,252.639C550.866,252.75 552.745,234.271 553.026,231.509Z" style="fill:rgb(110,67,50);fill-opacity:1;"/>
        <path d="M502.5,452.999L497.5,452.999C493.171,395.394 454.778,408.423 439.912,369.35C431.925,348.356 445.526,305.614 490.543,315.301C515.441,320.658 554.927,358.888 600.224,325.141C628.542,304.043 625.529,270.701 616.201,250.631C615.941,250.074 611.645,239.467 608.46,235.522C608.196,235.154 607.932,234.786 607.668,234.418C606.148,232.086 603.045,223.128 598.934,217.276C598.882,217.202 598.714,215.57 598.699,215.421C598.519,214.411 598.52,214.529 597.536,210.492L597.002,207.514C596.913,207.035 596.444,204.501 595.946,201.506C596.448,200.882 596.95,200.258 597.452,199.634L598.237,200.577C601.144,224.623 619.37,232.167 629.155,259.618C641.041,292.966 624.301,320.01 613.349,330.333C567.665,373.394 517.464,339.144 506.254,332.965C450.43,302.191 440.069,377.725 482.541,374.89C495.539,374.022 498.215,355.632 493.136,364.088C489.13,370.759 475.812,368.166 473.438,359.519C466.859,335.558 506.898,330.193 510.869,355.43C515.373,384.054 476.481,393.921 458.61,376.384C442.122,360.204 450.487,341.993 450.485,340.5C450.479,334.353 447.47,343.108 447.358,343.432C438.189,370.11 463.37,386.044 468.305,391.78C471.28,395.048 504.662,421.719 502.5,452.999Z" style="fill:rgb(251,197,128);fill-opacity:1;"/>
        <path d="M367.499,109.482C346.711,110.771 341.979,115.63 333.423,118.333C329.257,119.649 313.186,130.499 310.628,132.675C285.832,153.778 259.826,163.441 261.739,158.56C264.39,151.795 269.273,157.499 301.186,133.089C313.052,124.013 358.717,86.785 414.39,115.711C425.564,121.516 430.53,125.859 432.486,127.517C435.442,130.172 435.484,130.001 438.373,132.637C471.337,161.884 464.343,208.672 445.661,232.609C442.233,237.001 447.104,234.173 447.227,234.055C453.588,227.959 459.302,210.793 459.444,210.42C459.683,209.794 459.613,209.019 460.037,208.5C460.45,207.995 461.351,208.087 461.764,207.582C459.604,215.499 456.751,228.267 444.382,241.387C426.749,260.09 393.379,264.741 381.512,264.202C331.48,261.931 301.434,234.077 288.242,224.877C283.804,221.782 254.603,201.417 222.436,209.245C163.949,223.476 174.977,274.154 197.6,278.05C226.558,283.038 222.848,253.689 219.446,252.589C216.465,251.625 220.162,257.242 216.107,262.186C203.195,277.931 180.213,253.351 200.156,239.027C208.319,233.164 212.361,235.209 216.457,235.711C248.657,249.526 232.115,284.188 210.442,287.126C166.025,293.149 151.361,219.706 222.462,204.284C224.581,203.811 224.501,203.737 226.547,202.974C229.863,202.768 233.178,202.561 236.494,202.355C237.375,202.345 244.499,202.266 247.503,201.975C251.536,202.511 251.441,202.607 255.436,202.924C281.962,210.888 283.036,209.717 303.667,228.308C317.423,240.704 366.455,272.233 413.535,252.595C425.145,247.752 434.034,241.21 442.875,229.783C455.089,213.998 456.437,195.344 456.576,194.505C457.166,180.953 457.838,163.049 438.901,140.168C420.567,118.014 394.023,112.25 389.552,111.279C383.566,109.979 383.644,109.948 377.502,109.467C374.167,109.472 370.833,109.477 367.499,109.482Z" style="fill:rgb(242,226,195);fill-opacity:0.98;"/>
        <path d="M461.997,108.053C445.774,90.062 446.335,87.991 446.169,87.683C445.299,86.073 440.913,80.592 447.424,83.653C478.792,98.399 497.4,79.179 519.87,60.973C550.27,36.342 569.355,56.893 571.001,64.633C577.011,92.907 543.558,101.557 533.962,85.224C531.185,80.498 530.32,62.68 550.462,69.606C555.3,71.269 557.146,66.25 555.318,63.618C548.465,53.746 534.597,63.038 508.58,83.602C480.259,105.986 460.099,92.104 464.973,97.122C466.076,98.258 466.409,97.827 480.014,109.993C512.209,138.782 527.93,183.387 504.142,216.233C493.875,230.409 472.263,242.789 477.998,233.811C479.385,231.639 488.281,217.712 491.184,204.419C500.667,161.007 484.929,134.212 461.997,108.053L475.002,115.897C515.253,166.855 499.852,197.45 493.626,214.512C490.942,221.869 501.644,206.713 504.699,199.586C528.014,145.189 441.514,78.699 459.438,98.538C465.653,105.416 465.916,105.034 475.002,115.897L461.997,108.053Z" style="fill:rgb(163,108,75);fill-opacity:1;"/>
        <path d="M262.5,0L304.5,0C305.746,4.008 313.393,11.641 308.129,23.328C299.106,43.359 271.359,25.231 263.391,27.033C258.262,28.193 258.879,35.236 263.714,37.05C279.354,42.921 330.136,49.041 329.192,87.488C328.431,118.521 284.797,126.74 271.37,97.561C262.927,79.213 284.037,60.982 297.265,76.695C301.438,81.652 299.221,95.469 309.52,89.53C312.013,88.093 323.264,71.302 287.401,57.754C274.114,52.735 240.057,47.759 249.272,24.412C252.647,15.86 262.07,11.175 269.564,13.243C283.942,17.212 301.974,24.718 298.065,12.662C296.667,8.35 294.972,9.959 266.481,1.565C264.364,0.941 264.466,0.858 262.5,0Z" style="fill:rgb(243,228,200);fill-opacity:1;"/>
        <path d="M775.5,0L817.5,0C818.296,1.489 818.017,1.557 819.042,2.885C828.228,14.782 823.06,38.442 797.425,31.783C789.592,29.748 770.122,21.255 773.259,33.59C775.577,42.704 838.389,42.114 842.614,83.492C845.445,111.213 808.45,128.388 788.693,104.355C771.873,83.894 795.099,59.887 809.984,76.04C816.312,82.908 812.025,93.712 821.415,90.245C827.294,88.074 833.751,71.793 805.404,59.731C786.441,51.662 757.68,48.902 761.387,28.485C762.973,19.756 771.359,10.791 782.527,13.398C796.371,16.631 813.673,24.943 811.34,13.536C810.266,8.285 800.35,7.676 782.456,2.648C775.889,0.803 776.113,0.291 775.5,0Z" style="fill:rgb(251,197,128);fill-opacity:1;"/>
        <path d="M804.595,168.792C827.478,158.174 825.426,154.92 843.274,144.113C902.911,108.006 943.644,151.339 947.756,171.417C948.144,172.752 948.532,174.086 948.92,175.42C949.209,176.762 949.499,178.104 949.789,179.446C954.023,206.286 941.852,231.99 911.402,240.187C869.987,251.336 831.135,211.565 816.207,201.953C785.397,182.116 763.667,187.013 735.537,188.321C731.741,188.497 736.511,185.915 736.706,185.81C791.913,155.929 829.208,199.444 847.775,212.085C899.987,247.635 955.043,223.191 937.44,170.52C931.26,152.028 910.27,136.95 884.496,138.424C843.671,140.757 834.029,161.788 814.653,169.819C813.055,170.482 812.733,170.402 812.681,172.115C812.101,171.96 808.83,171.09 805.5,169.921L804.595,168.792Z" style="fill:rgb(163,109,75);fill-opacity:1;"/>
        <path d="M291.589,168.753C294.366,167.4 306.679,161.401 324.227,148.132C353.301,126.147 392.948,123.292 418.863,147.094C433.303,160.356 435.249,174.912 435.612,176.48C441.765,205.808 427.485,232.414 398.606,239.959C349.8,252.711 316.669,205.194 287.464,193.591C251.981,179.493 220.766,192.012 220.976,187.476C221.077,185.3 252.321,170.062 278.459,177.654C320.273,189.799 329.454,222.489 377.448,228.793C383.184,229.546 403.513,229.663 416.235,217.23C418.731,214.791 432.284,201.545 425.269,174.555C417.108,143.161 373.456,119.359 319.836,157.977C316.324,160.507 316.406,160.423 312.836,162.966C308.38,166.141 308.35,165.963 303.631,168.741C301.34,170.09 301.142,169.603 298.996,171.264C294.895,171.187 294.731,171.348 291.589,168.753Z" style="fill:rgb(163,109,75);fill-opacity:1;"/>
        <path d="M430.617,123.387C406.23,98.9 392.829,37.537 436.266,12.107C486.246,-17.153 514.507,37.649 492.259,61.277C472.285,82.491 445.114,68.211 451.198,50.4C456.655,34.423 473.766,45.917 476.464,34.492C482.28,9.86 414.464,11.014 420.234,71.527C423.012,100.664 456.666,135.816 456.464,141.498C456.397,143.402 454.516,143.131 436.548,128.436C432.02,124.659 432.009,124.726 430.617,123.387Z" style="fill:rgb(251,197,128);fill-opacity:1;"/>
        <path d="M952.837,131.035C949.11,127.713 949.204,127.644 948.559,127.411C939.305,124.071 906.337,73.364 927.751,34.632C948.976,-3.756 1001.89,-5.963 1011.488,29.503C1023.711,74.667 962.451,83.472 963.671,55.499C964.633,33.451 986.686,46.288 989.584,34.52C993.873,17.105 958.232,10.974 941.05,36.195C915.803,73.256 955.474,117.215 965.992,135.218C975.528,151.54 959.601,134.562 952.837,131.035Z" style="fill:rgb(163,108,76);fill-opacity:1;"/>
        <path d="M645.506,124.897C647.355,124.904 662.348,124.959 668.499,122.498C673.856,120.354 680.502,116.291 682.416,114.343C693.906,102.646 681.352,119.795 681.069,120.182C655.048,155.725 595.496,132.486 556.465,140.32C528.38,145.957 536.224,165.999 542.512,164.551C544.987,163.981 549.999,149.44 562.54,152.283C582.71,156.855 580.054,184.398 560.357,191.079C527.415,202.252 506.284,162.254 529.935,137.925C552.422,114.792 599.623,128.599 645.506,124.897Z" style="fill:rgb(242,228,199);fill-opacity:1;"/>
        <path d="M144.514,124.615L146.481,124.366C163.668,120.887 162.363,117.982 169.573,113.648C174.622,110.612 165.814,126.529 153.27,133.027C119.88,150.324 64.169,130.894 33.673,142.915C18.549,148.877 22.347,168.811 30.327,164.146C31.461,163.483 38.412,145.451 54.608,154.304C73.366,164.558 59.374,198.804 29.561,192.239C-4.712,184.693 -1.813,130.645 44.556,124.96C64.547,122.509 73.63,127.33 144.514,124.615Z" style="fill:rgb(242,228,199);fill-opacity:1;"/>
        <path d="M1023.999,250.5L1023.999,265.5C1010.493,262.849 1011.028,261.182 992.447,256.706C962.61,249.518 928.85,271.408 947.388,258.361C993.773,225.717 988.643,187.428 987.712,180.473C981.583,134.723 945.998,111.306 939.762,78.442C930.52,29.736 977.259,19.564 983.626,29.402C988.247,36.543 975.681,34.253 974.499,34.248C961.106,34.189 953.301,47.445 951.808,55.562C944.448,95.559 979.099,110.601 994.872,158.372C1015.763,221.638 967.998,243.005 982.48,242.072C994.539,241.295 1005.903,246.134 1023.999,250.5Z" style="fill:rgb(251,197,128);fill-opacity:1;"/>
        <path d="M1023.999,322.5L1023.999,334.5C1023.198,334.422 1023.127,335.098 1021.227,333.982C972.935,305.596 957.154,357.2 979.691,371.183C996.648,381.704 1009.864,368.033 1008.059,363.62C1006.943,360.888 1005.93,367.345 999.53,367.85C982.027,369.23 982.223,344.475 996.365,340.101C1015.084,334.311 1020.689,348.036 1023.999,353.5L1023.999,365.5C1023.147,366.925 1013.855,392.63 983.536,383.379C970.355,379.358 958.808,363.429 962.488,346.499C962.549,346.22 965.891,330.842 961.038,343.232C951.581,367.375 973.302,384.143 983.367,393.686C991.066,401.924 992.338,400.755 1001.874,415.228C1002.158,415.598 1002.442,415.968 1002.726,416.338C1002.505,416.634 1001.366,418.16 999.437,419.585C995.23,419.783 991.845,423.165 991.552,426.457L990.578,426.134L989.493,425.633C989.255,425.138 989.016,424.643 988.778,424.148C987.714,423.308 982.978,419.564 974.476,415.054C975.52,414.652 983.295,411.657 984.748,405.572C985.788,401.219 941.792,384.791 953.197,342.422C957.572,326.169 976.398,305.879 1009.608,317.184C1016.87,319.656 1016.634,320.031 1023.999,322.5Z" style="fill:rgb(144,98,73);fill-opacity:1;"/>
        <path d="M590.761,182.584C591.701,175.198 613.707,136.973 653.733,165.157C663.71,172.182 664.883,172.76 663.341,174.358C652.264,185.841 618.356,144.543 597.429,176.453C596.808,177.4 594.78,181.951 594.373,183.469C591.587,193.845 593.412,198.773 594.448,204.512C594.949,206.458 595.45,208.403 595.951,210.349C596.639,212.024 596.898,211.814 597.643,213.442C597.995,214.102 598.347,214.762 598.699,215.421C598.714,215.57 598.882,217.202 598.934,217.276C603.045,223.128 606.148,232.086 607.668,234.418C607.981,235.432 608.294,236.446 608.608,237.46C612.058,245.972 630.947,283.159 601.171,311.117C569.971,340.413 534.144,328.355 528.513,326.46C505.959,318.87 471.314,296.89 446.843,322.804C432.621,337.865 427.883,369.482 445.888,395.228C452.804,405.117 455.435,405.794 452.493,407.544C416.292,382.808 425.777,335.127 440.896,318.84C456.532,301.998 476.204,303.776 479.497,304.074C481.821,304.256 484.145,304.437 486.47,304.619C488.497,305.21 488.391,305.271 490.475,305.614C490.964,305.739 494.455,306.635 496.486,307.545C497.491,307.862 498.496,308.179 499.501,308.497C500.986,309.156 500.912,309.262 502.54,309.384C503.211,309.715 503.882,310.045 504.552,310.376C506.058,311.106 505.93,311.192 507.543,311.388C508.21,311.721 508.877,312.055 509.544,312.389C511.524,313.213 511.468,313.142 513.549,313.375C514.209,313.725 514.869,314.075 515.529,314.425C516.517,314.788 517.506,315.151 518.494,315.514C521.527,316.714 521.428,316.907 521.69,317.011C562.715,333.183 612.107,309.853 610.192,266.511C610.098,264.399 609.456,260.081 609.373,259.524C608.209,254.877 608.278,254.97 608.169,254.577C607.854,253.467 607.841,253.566 606.953,251.319C605.821,246.825 605.339,247.08 604.131,242.647C602.463,238.98 602.421,239.123 600.746,235.387C591.28,214.274 591.857,214.13 590.939,212.35C590.572,210.102 590.646,210.138 590.234,208.568C589.925,207.221 589.616,205.875 589.307,204.529C588.001,197.115 588.58,197.133 588.858,189.542C589.037,188.915 589.137,189.07 589.31,188.464C589.38,188.22 589.37,188.236 590.113,185.384L590.761,182.584Z" style="fill:rgb(242,227,196);fill-opacity:0.99;"/>
        <path d="M291.141,234.996C339.691,270.517 328.915,322.015 299.466,330.391C279.8,335.984 252.529,329.346 252.999,345.459C253.096,348.776 259.222,354.857 257.684,348.482C254.953,337.166 278.367,334.352 276.696,353.522C275.167,371.057 240.276,369.714 242.236,344.473C242.835,336.746 249.545,324.589 266.498,324.401C276.864,324.287 310.932,329.95 314.595,298.507C316.622,281.104 299.226,256.592 265.459,263.091C257.433,264.635 277.142,250.963 266.68,226.43C266.612,226.27 264.131,222.362 266.499,222.512C268.555,222.642 278.637,227.658 279.663,228.169C285.706,231.176 285.497,231.349 291.141,234.996Z" style="fill:rgb(242,227,197);fill-opacity:0.99;"/>
        <path d="M770.583,351.156C770.662,351.024 771.572,349.5 771.572,349.5C770.639,334.196 788.199,338.024 790.166,347.584C795.198,372.048 755.955,370.305 755.986,347.496C756.026,318.452 794.482,324.575 794.498,324.576C845.915,325.908 838.16,254.742 780.444,263.009C775.741,263.683 778.454,260.791 780.109,256.359C790.352,228.915 772.57,219.45 780.513,222.418C827.608,240.02 841.667,278.078 838.094,299.426C831.697,337.648 793.184,332.428 780.56,333.933C766.229,335.642 763.118,344.858 770.583,351.156Z" style="fill:rgb(243,228,198);fill-opacity:0.99;"/>
        <path d="M255.527,165.776L259.418,165.084L260.5,166.849L261.5,166.842C262.197,166.789 262.763,166.746 270.243,166.883C272.206,167.217 272.164,167.352 274.139,166.994C277.528,167.243 280.894,167.649 281.479,167.72L283.406,167.985C287.551,168.89 287.464,169.55 291.589,168.753C294.731,171.348 294.895,171.187 298.996,171.264C304.176,178.16 326.414,156.247 342.733,148.955C343.764,148.494 376.707,129.647 408.173,152.91C414.226,157.385 414.088,159.488 412.535,159.049C406.997,157.484 381.123,126.235 332.793,161.887C322.919,169.171 323.176,169.514 312.741,174.921C308.894,176.914 313.698,177.027 331.223,188.923C341.746,196.066 362.917,212.088 387.432,210.005C401.369,208.821 408.515,188.807 395.555,184.352C389.77,182.363 386.164,187.549 389.383,187.94C389.457,187.949 394.833,187.014 397.237,192.606C403.132,206.32 368.415,210.803 370.973,185.532C373.321,162.342 414.803,165.77 414.143,195.479C413.648,217.738 385.819,229.58 351.753,214.021C322.156,200.502 298.545,167.101 252.523,172.69C251.045,170.252 250.207,170.027 251.251,169.281C254.007,167.311 254.35,167.932 254.5,167.685C254.783,167.218 254.206,166.528 254.464,166.048C254.638,165.726 255.354,166.098 255.527,165.776Z" style="fill:rgb(110,66,49);fill-opacity:1;"/>
        <path d="M774.399,165.079L775.5,166.813C779.481,166.064 784.795,167.07 785.588,167.22L787.558,167.247C794.088,167.395 793.977,167.504 800.435,168.775C803.342,169.348 803.255,168.994 804.595,168.792L805.5,169.921C808.83,171.09 812.101,171.96 812.681,172.115C834.227,173.116 850.2,134.996 898.518,142.39C911.392,144.36 932.366,159.373 925.498,158.762C920.253,158.295 896.025,126.205 847.706,160.796C837.395,168.178 837.797,168.617 826.742,174.877C823.279,176.838 829.552,178.715 843.202,187.927C843.325,188.01 875.132,212.963 900.463,210.066C919.16,207.928 920.585,183.503 905.528,183.833C904.467,183.857 896.281,187.352 905.541,188.24C915.266,189.173 911.658,206.868 896.446,203.785C877.438,199.933 880.86,163.504 910.555,171.251C940.768,179.132 931.288,237.596 872.403,216.794C838.131,204.686 813.967,167.04 766.488,172.429C765.196,171.018 763.098,169.441 767.5,168.101L768.5,167.961L768.446,166.058L774.399,165.079Z" style="fill:rgb(110,66,49);fill-opacity:1;"/>
        <path d="M666.971,249.548C666.97,250.605 665.614,263.074 670.951,277.319C681.292,304.918 722.893,334.692 757.072,295.128C759.506,292.311 785.359,252.539 814.083,275.966C829.575,288.601 822.331,319.673 797.462,315.717C780.922,313.086 779.746,285.906 798.462,287.779C806.522,288.586 806.298,301.229 808.055,295.345C809.955,288.985 795.814,266.635 770.95,296.878C769.601,298.519 745.974,332.661 708.619,324.001C660.465,312.837 655.085,258.531 667.855,234.802C670.743,229.436 668.92,239.164 668.849,239.546C668.699,240.346 667.023,249.296 666.971,249.548Z" style="fill:rgb(251,197,128);fill-opacity:1;"/>
        <path d="M152.957,253.507C152.889,302.569 205.697,335.727 241.314,297.336C246.653,291.581 270.621,253.9 299.102,274.993C313.826,285.897 310.106,312.156 292.507,315.532C265.436,320.725 265.371,283.807 285.417,287.867C293.481,289.5 292.263,301.915 294.145,295.363C296.738,286.334 279.563,269.88 258.925,294.848C255.954,298.442 227.171,341 181.624,319.229C130.275,294.685 153.056,223.61 156.111,234.602C156.374,235.546 153.806,242.414 152.957,253.507Z" style="fill:rgb(112,68,51);fill-opacity:1;"/>
        <path d="M632.44,174.931C631.107,174.9 620.858,174.658 616.816,180.719C610.907,189.581 615.848,201.797 616.531,203.486C624.588,223.408 675.496,260.932 646.781,316.636C619.791,368.995 561.476,361.775 558.557,358.437C556.307,355.865 567.21,356.14 572.517,355.74C603.994,353.367 624.457,330.247 631.151,318.304C666.446,255.341 591.077,220.69 603.318,184.44C613.503,154.281 648.864,176.96 649.016,178.359C649.162,179.705 648.123,178.866 632.44,174.931Z" style="fill:rgb(111,68,50);fill-opacity:1;"/>
        <path d="M107.983,235.132C97.552,219.946 96.496,217.228 93.989,212.263C78.569,181.719 97.828,165.995 115.547,169.237C119.891,170.032 135.197,177.214 135.456,177.536C140.014,183.205 117.581,170.28 107.591,176.646C86.702,189.958 113.284,219.308 125.992,237.143C129.771,242.445 155.113,278.009 132.156,318.3C102.183,370.905 46.502,360.857 44.791,358.281C43.186,355.864 50.641,356.367 54.477,356.087C59.655,355.708 92.163,353.331 112.047,326.144C144.117,282.297 115.688,246.405 107.983,235.132Z" style="fill:rgb(251,197,128);fill-opacity:1;"/>
        <path d="M342.979,291.05C334.613,280.674 335.408,278.804 326.559,257.485C325.081,253.925 331.3,258.225 332.344,258.787C370.131,279.139 393.103,273.469 409.489,270.441C419.146,268.656 420.447,265.359 421.386,267.51C421.631,268.073 411.691,276.792 403.685,280.873C371.811,297.124 356.017,279.893 356.479,286.501C357.165,296.312 389.198,285.666 400.087,304.726C414.698,330.298 384.237,354.764 366.632,336.368C350.683,319.704 372.848,297.263 384.372,309.622C388.831,314.403 386.676,315.21 384.908,321.457C384.131,324.204 391.53,319.251 389.855,312.406C385.642,295.187 359.003,308.362 342.979,291.05Z" style="fill:rgb(111,67,50);fill-opacity:1;"/>
        <path d="M899.994,315.487C899.75,318.117 899.705,318.044 898.917,320.56C896.514,328.235 909.99,313.878 899.355,305.683C887.449,296.51 865.842,309.571 850.658,282.417C846.534,275.044 846.056,270.048 840.338,257.529C837.793,251.957 847.283,261.417 865.443,267.634C905.428,281.324 933.989,266.385 934.472,266.598C938.168,268.225 908.224,292.559 882.495,287.529C876.75,286.406 868.669,282.955 870.409,287.535C873.863,296.632 916.514,283.222 917.534,318.5C918.384,347.872 873.142,351.844 875.267,320.475C876.219,306.412 897.962,299.085 899.994,315.487Z" style="fill:rgb(112,68,51);fill-opacity:1;"/>
        <path d="M1023.999,68.5L1023.999,82.5C1017.183,86.455 1017.793,87.264 1010.687,90.867C990.597,101.055 983.301,95.811 978.531,95.687C975.154,95.599 980.577,98.408 986.385,103.631C1009.225,124.172 1008.098,125.256 1023.999,151.5L1023.999,205.5C1015.108,220.26 1012.489,223.874 1000.832,231.967C1000.248,232.372 985.245,242.787 992,232.83C1011.002,204.818 1007.327,175.466 1006.905,170.442C1003.71,132.437 966.938,101.486 959.956,89.238C958.173,86.11 954.302,80.935 960.421,83.686C992.927,98.297 1009.262,78.391 1023.999,68.5L1008.485,215.465C1008.495,215.452 1036.013,187.695 1011.122,141.696C994.699,111.345 958.082,82.637 976.458,102.531C1028.387,158.747 1015.656,188.802 1007.339,214.531C1006.786,216.245 1007.924,215.444 1008.485,215.465L1023.999,68.5Z" style="fill:rgb(162,108,75);fill-opacity:1;"/>
        <path d="M588.087,186.411C587.377,188.939 587.263,188.841 587.145,191.482C586.623,196.521 586.623,196.472 587.124,201.509C586.817,204.52 587.143,204.438 587.796,207.436C588.345,209.601 588.326,209.528 589.058,211.598C589.359,213.203 589.319,213.16 590.035,214.665C590.315,215.748 591.554,220.55 595.129,227.676C601.609,240.595 602.478,243.87 602.874,245.363C604.627,249.865 604.463,249.83 605.862,254.421C606.121,255.436 606.381,256.452 606.64,257.467C607.106,259.567 607.133,259.463 608.012,262.558C607.777,264.75 611.241,293.501 578.38,311.266C554.269,324.3 528.581,317.008 524.413,315.824L522.519,315.413C521.186,315.091 519.854,314.77 518.521,314.448C516.988,313.825 517.113,313.745 515.476,313.58C515.209,313.479 515.329,313.337 512.307,311.941C511.702,311.802 511.097,311.663 510.493,311.524C509.505,311.162 508.517,310.801 507.529,310.439C506.849,310.135 506.17,309.832 505.491,309.528C504.507,309.158 503.522,308.788 502.538,308.419C501.854,308.127 501.171,307.836 500.487,307.545C500.006,307.386 496.59,306.255 494.508,305.466C494.17,305.362 494.254,305.217 490.376,303.893C489.085,303.755 487.794,303.617 486.503,303.479C441.247,292.481 411.436,342.83 429.634,382.447C431.785,387.129 435.152,392.62 435.173,392.687C435.719,394.464 436.704,393.834 437.181,395.713C437.296,396.165 437.503,395.99 440.468,400.523C442.543,403.696 449.359,406.688 443.629,406.156L442.544,405.372C435.692,401.553 435.659,401.817 428.572,398.379C424.4,396.355 408.897,370.368 416.226,341.427C422.734,315.727 451.411,281.187 503.376,301.82C524.265,310.114 533.493,314.349 557.567,310.948C579.522,307.846 609.455,284.917 597.781,249.411C588.896,222.386 571.25,200.949 591.492,170.494C595.752,164.086 596.844,165.165 597.175,165.661C598.324,167.386 589.081,173.386 588.087,186.411Z" style="fill:rgb(163,110,76);fill-opacity:0.99;"/>
        <path d="M0,266.5L0,251.5C2.351,251.769 2.241,251.73 4.576,252.024C7.618,252.408 36.141,256.003 39.132,235.44C42.083,215.143 18.84,215.144 25.681,220.268C38.388,229.784 26.31,240.624 22.553,241.67C11.084,244.865 6.258,239.973 0,234.5L0,207.5C0.364,207.26 0.932,207.558 1.296,207.318C1.894,206.924 2.22,206.222 2.719,205.708C26.743,180.969 68.77,211.151 51.922,245.695C39.713,270.727 9.877,266.916 0,266.5Z" style="fill:rgb(110,67,50);fill-opacity:1;"/>
        <path d="M578.568,290.577C578.214,290.887 577.86,291.197 577.505,291.507C572.942,295.339 573.006,295.361 567.595,297.761C565.721,298.592 555.327,303.203 542.481,302.853C528.785,302.479 511.051,295.184 508.746,294.037C457.003,268.282 438.362,265.164 412.368,296.365C402.027,308.778 412.674,289.928 420.959,281.986C453.438,250.85 494.878,277.512 516.461,283.65C534.997,288.92 556.978,284.983 567.347,277.288C593.468,257.904 583.231,234.346 584.867,232.889C589.221,229.011 604.986,266.27 580.467,289.464C579.605,290.279 579.393,289.821 578.568,290.577L570.796,290.962C570.931,290.863 573.27,289.466 576.077,287.052C586.24,278.313 589.761,257.7 585.183,266.069C583.698,268.785 575.179,284.362 554.547,289.696C526.606,296.92 501.941,283.738 501.491,283.565C494.414,280.843 501.081,285.719 501.243,285.797C544.456,306.485 563.489,295.197 570.796,290.962L578.568,290.577Z" style="fill:rgb(243,227,194);fill-opacity:0.98;"/>
        <path d="M0,337.5L0,324.5C11.009,329.166 53.125,355.114 90.142,322.098C120.121,295.358 107.226,258.675 100.703,246.372C97.759,240.82 97.794,240.848 96.5,238.5C96.159,237.837 95.817,237.175 95.475,236.512C94.57,235.464 93.653,233.746 93.517,233.492C91.829,230.749 85.545,215.44 83.896,213.283C84.041,211.292 84.032,211.384 83.646,209.476L83.109,206.529C83.034,205.977 81.739,196.431 84.26,199.654C85.784,201.602 80.435,204.06 97.09,227.782C102.97,236.157 136.82,275.987 107.969,319.808C95.674,338.482 60.785,366.275 10.685,342.107C10.044,341.798 6.159,339.924 2.729,338.103C1.469,337.435 1.421,337.814 0,337.5Z" style="fill:rgb(163,109,76);fill-opacity:1;"/>
        <path d="M146.414,122.076C142.768,122.346 139.796,123.751 141.621,120.552C164.701,80.093 223.656,88.963 239.274,121.606C242.991,129.375 257.652,173.622 203.557,190.67C189.558,195.082 150.383,202.135 140.641,244.528C140.525,245.032 139.25,250.581 138.552,250.65C132.392,251.262 135.241,197.015 197.388,183.014C261.882,168.485 237.898,92.571 176.584,103.971C171.634,104.891 161.617,109.396 155.612,115.612C151.544,119.822 152.176,121.007 146.414,122.076Z" style="fill:rgb(110,67,49);fill-opacity:1;"/>
        <path d="M749.053,139.541C748.627,137.694 748.82,137.704 747.217,131.571C741.304,108.937 695.09,86.026 666.063,119.089C662.504,123.143 653.112,123.928 654.926,120.733C657.556,116.099 666.619,100.558 686.584,95.864C732.667,85.028 768.739,119.827 754.232,159.394C736.089,208.878 669.13,175.425 652.799,249.677C651.692,254.707 646.213,242.755 654.86,224.697C674.008,184.712 713.886,185.219 730.359,175.257C752.649,161.776 749.053,139.725 749.053,139.541Z" style="fill:rgb(111,67,49);fill-opacity:1;"/>
        <path d="M174.024,142.484C177.587,109.544 221.718,111.274 228.133,138.588C235.761,171.074 193.63,177.85 186.579,179.837C142.212,192.341 144.355,212.567 137.1,225.185C136.738,225.815 133.016,226.218 135.317,217.451C148.987,165.381 192.698,176.097 208.373,160.37C223.911,144.781 201.572,125.586 191.958,137.889C186.066,145.429 192.718,150.341 193.64,152.437C199.356,165.44 173.791,165.191 174.024,142.484Z" style="fill:rgb(109,66,49);fill-opacity:1;"/>
        <path d="M734.016,165.02C709.352,183.883 699.806,175.22 678.789,187.972C649.044,206.019 653.308,230.634 648.838,225.229C647.173,223.215 650.31,191.646 679.676,177.847C702.249,167.24 729.18,167.083 727.167,145.553C725.787,130.8 701.046,130.986 703.284,145.534C703.713,148.326 713.396,158.148 703.397,161.167C692.144,164.565 679.278,140.497 695.881,124.903C719.837,102.404 760.667,136.743 734.016,165.02Z" style="fill:rgb(251,197,128);fill-opacity:1;"/>
        <path d="M0,321.5L0,314.5C0.825,314.52 1.65,314.54 2.476,314.56C4.145,315.218 3.975,315.431 5.668,316.088C7.246,316.539 28.232,326.723 53.555,319.7C88.219,310.085 104.108,279.597 93.89,254.421C93.085,252.439 93.976,252.233 92.966,250.322C92.738,249.413 92.097,246.848 88.835,239.358C81.777,223.145 80.118,223.756 76.323,206.533C75.779,203.942 74.985,204.108 75.312,201.523C75.403,200.805 74.802,200.817 75.231,192.474C76.589,166.075 105.743,141.477 138.295,163.797C150.142,171.92 150.374,172.198 150.103,173.384C148.486,180.462 132.01,172.987 130.586,172.34C125.376,169.977 100.532,153.585 84.928,174.826C80.861,180.362 80.014,186.273 79.408,190.489C78.665,195.661 81.616,207.87 81.974,209.351C82.859,211.666 83.249,211.39 83.385,211.549C83.556,212.127 83.726,212.705 83.896,213.283C85.545,215.44 91.829,230.749 93.517,233.492C94.3,236.137 93.796,236.285 95.52,238.489C95.746,239.632 95.759,239.572 96.442,240.524C97.607,245.91 120.96,289.026 79.437,317.403C41.274,343.484 5.992,322.42 1.594,321.214C1.073,321.071 0.52,321.643 0,321.5Z" style="fill:rgb(243,227,196);fill-opacity:0.98;"/>
        <path d="M768.446,166.058L768.5,167.961L767.5,168.101C763.098,169.441 765.196,171.018 766.488,172.429C751.866,175.745 743.468,181.036 749.148,175.256C767.096,156.991 778.693,115.35 729.675,91.142C715.968,84.373 678.436,77.746 656.034,112.202C649.116,122.842 648.783,122.9 647.56,122.878C642.624,122.788 640.782,124.077 641.499,121.5C653.792,77.315 707.887,60.463 751.126,91.984C778.285,111.782 777.403,150.342 766.318,164.436C766.22,164.561 765.013,166.095 766.518,166.409C767.157,166.543 767.807,165.924 768.446,166.058Z" style="fill:rgb(163,109,75);fill-opacity:1;"/>
        <path d="M255.527,165.776C255.354,166.098 254.638,165.726 254.464,166.048C254.206,166.528 254.783,167.218 254.5,167.685C254.35,167.932 254.007,167.311 251.251,169.281C250.207,170.027 251.045,170.252 252.523,172.69C243.494,174.365 243.789,175.048 235.478,177.7C225.271,180.957 253.026,168.152 251.032,134.529C249.368,106.492 212.793,76.092 171.567,88.687C152.966,94.37 140.653,114.711 138.841,117.705C136.057,122.305 135.868,122.667 130.495,123.093C127.184,123.356 127.777,121.72 128.869,118.614C158.04,35.68 293.326,86.53 253.496,163.498C251.677,167.012 255.353,165.812 255.527,165.776Z" style="fill:rgb(163,109,75);fill-opacity:1;"/>
        <path d="M234.5,0L245.5,0C245.317,3.567 247.922,38.3 199.361,59.127C182.06,66.547 142.046,69.404 124.683,119.561C123.228,123.763 114.51,121.876 115.316,119.464C141.768,40.294 207.645,68.863 230.078,21.313C235.553,9.709 234.688,1.731 234.5,0Z" style="fill:rgb(243,227,199);fill-opacity:0.99;"/>
        <path d="M748.5,0L758.5,0C760.684,26.191 738.597,50.745 707.37,61.082C688.661,67.276 655.113,73.461 637.938,118.656C635.535,124.98 628.256,121.774 629.331,118.445C646.987,63.755 691.144,58.284 708.364,51.163C743.604,36.591 746.806,17.107 748.5,0Z" style="fill:rgb(243,228,199);fill-opacity:0.99;"/>
        <path d="M662.955,408.013C652.977,396.458 647.172,385.885 652.295,364.457C659.481,334.397 711.438,318.507 726.091,365.643C732.676,386.822 736.002,385.09 746.319,389.841C746.608,389.974 747.505,392.744 742.572,391.176C726.81,386.165 722.49,373.271 719.785,366.375C707.29,334.519 661.659,341.601 659.917,377.508C658.374,409.325 697.703,417.485 698.389,417.773C714.515,424.544 718.531,435.424 712.653,430.28C694.572,414.458 686.084,427.5 662.955,408.013Z" style="fill:rgb(114,70,52);fill-opacity:1;"/>
        <path d="M203.43,432.443C198.334,429.306 198.611,427.109 191.334,423.92C183.575,420.52 142.458,419.927 138.629,381.487C135.445,349.526 164.689,331.055 186.596,337.129C224.607,347.67 205.222,377.866 231.368,388.78C231.584,388.869 240.659,392.658 232.499,391.466C208.892,388.017 212.525,357.438 192.362,348.821C154.912,332.817 130.446,386.097 163.7,408.196C173.64,414.802 202.493,420.293 203.43,432.443Z" style="fill:rgb(114,71,53);fill-opacity:1;"/>
        <path d="M0,79.5L0,65.5C14.058,57.634 13.736,54.355 23.425,51.254C23.774,51.143 36.711,45.875 48.226,52.942C59.478,59.849 59.089,71.322 58.58,73.514C49.812,111.277 5.422,87.548 22.783,70.799C28.729,65.062 36.733,69.363 37.472,69.598C41.842,70.991 44.109,66.493 42.193,63.695C32.552,49.617 6.426,77.584 0,79.5Z" style="fill:rgb(251,197,128);fill-opacity:1;"/>
        <path d="M1023.999,303.5L1023.999,310.5C1023.169,310.493 1022.34,310.485 1021.51,310.478C1020.832,310.177 1020.154,309.875 1019.475,309.574C1018.487,309.208 1017.499,308.843 1016.511,308.477C1015.833,308.174 1015.155,307.871 1014.478,307.568C1014.137,307.464 1014.271,307.322 1010.351,305.901C1008.857,305.632 1008.929,305.654 1007.485,305.553C1006.503,305.17 1005.52,304.786 1004.538,304.402C1002.538,303.79 1002.648,303.678 1000.519,303.392C972.372,297.861 966.839,308.566 958.322,312.268C955.645,313.431 925.285,342.059 943.77,384.375C944.494,386.032 944.734,385.824 945.426,387.536C945.436,387.561 947.688,391.901 947.885,392.281C948.706,393.863 951.469,397.265 953.335,400.587C955.72,404.835 963.616,410.779 957.526,407.384C941.673,398.546 941.607,398.612 940.568,397.431C932.076,387.776 925.896,364.149 928.393,349.486C931.706,330.038 935.837,323.876 948.014,311.025C957.318,301.208 978.337,290.667 1005.391,297.926C1021.427,302.229 1020.956,303.722 1022.391,303.842C1022.937,303.888 1023.453,303.454 1023.999,303.5Z" style="fill:rgb(164,111,78);fill-opacity:0.99;"/>
        <path d="M221.5,0L230.5,0C230.36,1.672 229.511,11.792 225.022,20.251C204.058,59.753 164.049,46.445 131.493,81.493C115.436,98.779 112.127,121.335 109.556,121.742C102.899,122.797 104.766,118.98 106.675,112.554C123.195,56.95 177.9,45.72 180.613,44.831C206.047,36.491 222.275,17.62 221.5,0Z" style="fill:rgb(163,108,74);fill-opacity:1;"/>
        <path d="M735.5,0L743.5,0C743.54,0.591 744.112,0.941 743.741,3.533C737.925,44.144 690.153,54.713 686.632,55.9C632.64,74.114 627.823,113.218 624.39,120.444C623.275,122.79 618.789,121.786 618.511,121.489C617.751,120.679 624.215,76.736 669.651,53.8C692.506,42.263 729.532,41.777 735.5,0Z" style="fill:rgb(163,108,74);fill-opacity:1;"/>
        <path d="M294.5,452.999L256.5,452.999C252.446,447.198 245.109,439.782 252.776,427.675C266.838,405.47 302.305,439.461 299.803,420.457C298.79,412.767 288.611,417.084 290.249,411.438C294.224,397.736 320.138,410.963 309.237,431.36C297.37,453.564 261.229,422.128 261.106,438.496C261.044,446.735 286.062,449.027 293.323,451.978C293.804,452.173 294.019,452.803 294.5,452.999Z" style="fill:rgb(241,226,196);fill-opacity:0.99;"/>
        <path d="M805.5,452.999L768.5,452.999C767.644,451.588 768.026,451.464 766.814,450.22C756.334,439.469 762.678,413.764 787.624,421.114C798.336,424.269 815.593,431.98 811.626,418.451C810.188,413.544 797.943,416.898 803.889,408.809C811.423,398.558 832.703,415.633 820.186,433.261C807.145,451.627 773.514,422.734 773.214,438.497C773.056,446.793 799.823,449.547 804.388,451.822C804.871,452.062 805.017,452.758 805.5,452.999Z" style="fill:rgb(251,197,128);fill-opacity:0.99;"/>
        <path d="M0,312.5L0,306.5C1.88,306.796 1.881,306.458 3.657,307.076C9.064,308.957 48.28,322.6 74.226,295.236C104.934,262.85 69.283,232.061 68.507,199.5C68.083,181.744 81.061,163.983 82.859,166.185C85.021,168.832 78.02,167.499 74.162,186.417C71.311,200.403 73.451,203.211 75.019,209.58C75.222,212.556 77.795,219.949 79.157,222.67C82.672,229.697 82.223,229.897 82.615,230.453C84.948,233.763 91.302,250.627 92.151,253.581C92.508,255.418 101.449,281.348 76.391,303.373C48.945,327.497 13.669,316.543 8.401,314.907C5.396,314.194 5.574,313.982 5.367,313.889L3.508,313.468C2.339,313.145 1.169,312.823 0,312.5Z" style="fill:rgb(162,108,75);fill-opacity:0.99;"/>
        <path d="M481.768,395.147C480.14,393.968 479.961,393.64 479.863,393.461C479.13,392.12 484.114,392.647 484.487,392.686C511.103,395.5 517.402,386.346 529.562,384.944C563.408,381.039 561.407,412.006 548.478,413.305C543.626,413.792 540.987,409.62 540.487,409.554C535.776,408.937 543.592,424.803 556.29,418.096C567.579,412.132 564.497,420.716 564.158,421.305C556.756,434.156 526.885,426.033 531.666,407.546C535.427,393.001 550.116,400.445 546.493,396.505C541.248,390.8 521.451,397.466 519.393,398.159C496.617,405.827 493.683,401.503 481.768,395.147Z" style="fill:rgb(242,226,194);fill-opacity:0.98;"/>
        <path d="M592.5,0L608.5,0C608.275,0.387 608.507,0.938 608.282,1.325C608.162,1.531 605.88,3.354 601.96,9.778C582.072,42.373 622.14,70.563 594.334,103.358C574.388,126.882 539.464,112.38 523.945,130.93C517.23,138.956 512.406,150.745 514.533,140.503C518.273,122.493 540.499,117.664 543.408,117.032C561.79,113.038 590.683,115.074 598.15,86.416C608.369,47.198 567.376,44.156 592.5,0Z" style="fill:rgb(110,66,47);fill-opacity:1;"/>
        <path d="M78.5,0L94.5,0C94.277,0.41 94.591,0.985 94.368,1.395C94.154,1.787 93.758,1.427 90.919,5.777C68.64,39.902 100.644,58.106 88.064,92.313C83.06,105.919 66.641,116.756 53.521,117.76C13.488,120.824 11.45,128.873 3.228,142.243C2.861,142.839 0.611,143.313 1.412,140.486C9.054,113.506 44.583,116.324 59.595,111.833C83.72,104.617 93.897,79.879 80.181,51.636C68.164,26.891 67.686,25.185 78.5,0Z" style="fill:rgb(110,66,47);fill-opacity:1;"/>
        <path d="M0,296.5L0,291.5C0.503,291.629 1.049,291.245 1.552,291.374C6.768,292.711 18.644,300.119 41.452,297.117C67.787,293.652 72.579,270.008 73.28,266.548C73.218,266.426 72.5,265.024 72.5,265.024C72.146,265.043 72.054,265.706 71.7,265.726C70.242,268.511 61.788,284.658 40.549,289.676C20.295,294.462 11.404,290.717 0,288.5L0,282.5C35.313,293.971 76.839,277.976 71.072,234.463C70.704,231.691 72.765,232.434 74.12,234.771C92.803,266.983 66.068,290.916 62.532,292.548C60.582,294.213 60.46,293.889 58.477,295.461C57.598,296.284 56.698,296.498 56.524,296.54C52.747,297.439 53.549,299.849 39.556,301.988C16.92,305.447 8.77,296.613 0,296.5Z" style="fill:rgb(243,227,195);fill-opacity:0.98;"/>
        <path d="M576.5,0L586.5,0C573.199,32.353 583.621,33.779 592.7,56.428C602.55,81.002 595.131,109.836 555.494,111.279C545.066,111.659 523.442,109.307 511.004,131.229C509.789,133.371 508.851,138.537 507.815,136.273C506.876,134.223 501.553,122.598 521.602,111.701C546.82,97.994 580.885,119.508 591.739,81.567C599.059,55.976 558.728,40.605 575.931,1.699C576.317,0.826 576.207,0.876 576.5,0Z" style="fill:rgb(161,107,73);fill-opacity:1;"/>
        <path d="M349.5,0L363.5,0C366.755,18.668 380.742,27.647 379.408,57.498C378.443,79.072 365.482,103.852 353.203,102.938C353.249,102.674 352.518,102.714 352.564,102.45C352.861,100.748 356.215,102.906 364.693,84.593C368.74,75.854 371.296,55.805 366.778,42.399C359.011,19.353 352.24,15.932 349.5,0Z" style="fill:rgb(164,108,76);fill-opacity:1;"/>
        <path d="M863.5,0L877.5,0C877.632,2.891 876.946,2.985 879.27,8.59C885.748,24.213 903.904,51.433 883.186,89.336C875.281,103.798 867.442,102.887 866.528,103.129C866.435,99.808 870.328,99.935 875.197,90.342C897.691,46.031 861.525,16.049 863.5,0Z" style="fill:rgb(251,197,128);fill-opacity:1;"/>
        <path d="M62.5,0L72.5,0C72.349,0.539 72.988,1.107 72.837,1.647C72.436,3.076 71.504,4.301 70.911,5.661C62.136,25.802 70.33,38.297 76.97,51.252C78.238,53.726 87.172,71.154 81.95,85.641C66.699,127.953 23.081,97.982 3.034,124.144C1.474,126.18 1.315,125.904 0,126.5L0,117.5C14.093,108.307 14.285,107 43.492,106.107C77.943,105.055 87.368,79.421 71.079,52.759C65.235,43.195 51.158,26.852 62.083,2.317C62.16,2.145 62.114,2.146 62.5,0Z" style="fill:rgb(161,107,73);fill-opacity:1;"/>
        <path d="M837.516,354.585C836.496,354.843 835.463,355.046 834.442,355.303C829.16,356.638 828.921,357.679 826.585,357.729C824.911,357.766 822.617,359.841 822.328,360.102C813.284,360.884 790.792,386.667 759.35,396.012C749.525,398.932 732.829,397.425 730.729,396.13C726.893,393.764 736.022,394.436 736.501,394.471C780.708,397.725 798.588,356.512 833.453,349.301C886.777,338.272 911.165,392.783 903.373,396.254C899.66,397.908 899.114,396.526 898.563,392.487C897.956,388.035 895.105,383.162 894.201,380.659C892.566,377.767 890.182,374.75 889.797,374.262C886.886,371.017 886.899,371.132 883.82,368.122C882.758,367.182 882.815,367.231 881.7,366.267C872.624,358.6 857.731,355.055 855.496,354.523C846.48,353.393 846.558,353.947 837.516,354.585Z" style="fill:rgb(115,71,52);fill-opacity:0.99;"/>
        <path d="M328.514,354.583C321.176,356.646 321.135,356.324 320.517,356.552C318.997,357.11 319.187,357.525 317.552,357.645C309.392,358.244 283.73,382.617 257.358,393.091C230.172,403.888 207.476,392.958 223.505,394.28C271.506,398.238 289.162,356.508 323.515,349.57C328.135,348.637 357.612,342.684 380.138,365.864C388.602,374.574 397.642,395.003 390.515,396.647C389.736,396.827 388.265,397.166 386.404,387.527C385.992,386.412 385.975,386.504 384.885,384.346C383.941,378.991 376.577,371.325 375.647,370.358C366.826,361.33 362.537,360.089 354.464,356.599C350.465,355.487 350.56,355.502 346.485,354.587C345.06,354.401 337.368,353.396 328.514,354.583Z" style="fill:rgb(251,197,128);fill-opacity:0.99;"/>
        <path d="M1023.999,312.5L1023.999,319.5C1021.308,318.556 973.377,293.698 953.727,332.608C935.523,368.653 963.375,401.006 964.785,404.427C971.152,419.875 921.114,375.305 949.863,325.724C961.725,305.267 984.815,302.676 994.521,304.086C997.622,304.39 997.619,304.125 1000.587,305.05C1001.89,305.206 1003.193,305.362 1004.496,305.519C1005.5,305.837 1006.505,306.156 1007.51,306.474C1008.507,306.814 1009.504,307.154 1010.502,307.495C1011.497,307.839 1012.493,308.183 1013.489,308.527C1014.167,308.826 1014.846,309.124 1015.524,309.423C1016.524,309.762 1017.525,310.101 1018.525,310.44C1020.018,311.131 1019.906,311.192 1021.488,311.526C1022.626,312.309 1022.583,312.211 1023.999,312.5Z" style="fill:rgb(242,227,196);fill-opacity:0.99;"/>
        <path d="M915.5,0L927.5,0C927.37,0.548 928.023,1.096 927.893,1.645C924.922,14.162 888.218,41.505 916.048,101.716C918.18,106.33 913.01,105.708 908.954,100.162C907.678,98.417 905.259,93.828 904.962,93.265C879.788,35.592 911.902,17.188 915.814,1.616C915.948,1.084 915.366,0.532 915.5,0Z" style="fill:rgb(110,66,49);fill-opacity:1;"/>
        <path d="M402.5,0L414.5,0C413.149,6.637 412.547,6.334 409.084,12.259C406.525,16.638 402.576,23.18 402.005,24.127C377.783,64.256 406.55,103.307 403.283,105.058C397.916,107.936 387.203,86.511 384.486,72.503C376.758,32.666 392.231,23.31 402.11,3.322C403.242,1.031 402.436,0.546 402.5,0Z" style="fill:rgb(110,66,49);fill-opacity:1;"/>
        <path d="M724.5,0L732.5,0C728.746,42.113 681.807,40.302 660.718,51.927C610.221,79.759 615.616,121.434 608.503,121.708C605.191,121.835 606.358,118.627 607.847,111.589C620.937,49.717 691.03,35.658 692.397,35.184C713.362,27.912 721.502,18.989 724.5,0Z" style="fill:rgb(111,66,48);fill-opacity:1;"/>
        <path d="M210.5,0L218.5,0C220.009,10.345 210.884,35.102 171.505,43.522C105.808,57.569 98.382,120.144 97.175,121.079C91.077,125.801 93.912,111.492 96.28,104.429C115.384,47.447 168.063,39.894 184.38,33.196C210.755,22.369 210.891,2.985 210.5,0Z" style="fill:rgb(112,67,48);fill-opacity:0.99;"/>
        <path d="M0,400.5L0,389.5C4.425,389.527 4.266,388.887 8.485,387.455C45.916,374.749 51.713,407.22 38.574,412.668C33.508,414.77 33.252,413.48 29.234,409.764C24.314,405.215 28.011,426.61 46.302,417.142C55.975,412.136 52.656,421.51 50.43,423.422C33.164,438.25 7.647,412.416 24.561,399.579C30.108,395.369 39.719,400.195 33.844,396.281C26.423,391.337 15.815,395.246 0,400.5Z" style="fill:rgb(242,226,194);fill-opacity:0.99;"/>
        <path d="M743.5,452.999L735.5,452.999C735.308,449.7 735.188,449.774 735.121,446.508C734.349,409.024 693.939,401.734 691.378,400.914C667.237,393.186 670.449,370.31 680.762,362.84C696.393,351.516 707.881,368.474 704.368,371.369C702.53,372.883 703.021,370.882 702.175,368.703C696.183,353.265 668.579,371.874 683.989,389.071C693.019,399.148 745.296,398.181 743.5,452.999Z" style="fill:rgb(166,115,81);fill-opacity:1;"/>
        <path d="M231.5,452.999L223.5,452.999C223.251,449.952 225.15,413.708 187.584,403.252C184.207,402.313 167.658,400.258 162.193,385.607C153.451,362.174 188.188,349.067 192.647,368.483C193.544,372.393 191.724,371.622 191.512,371.478C191.224,371.281 189.107,361.102 178.505,363.524C165.205,366.564 161.903,387.861 181.526,394.418C181.868,394.533 231.682,404.018 231.383,448.5C231.367,450.819 231.441,450.733 231.5,452.999Z" style="fill:rgb(165,115,80);fill-opacity:0.99;"/>
        <path d="M467.5,452.999L460.5,452.999C460.509,451.498 460.517,449.996 460.526,448.495C457.656,438.671 456.696,439.168 454.563,434.463C453.137,431.319 443.815,421.618 442.73,421.216C441.75,420.853 442.082,420.481 441.205,419.903C424.317,408.786 420.36,409.939 413.498,408.531C406.987,408.343 407.044,408.206 400.508,408.603C392.151,410.329 392.269,410.499 391.549,410.647C389.052,412.281 384.596,412.605 377.287,417.132C359.933,427.878 330.305,452.449 308.574,448.305C296.843,446.069 315.931,449.927 340.712,435.84C353.885,428.351 353.304,427.568 367.654,416.743C376.367,410.171 385.836,407.159 387.537,406.618C392.047,405.184 392.026,405.285 392.414,405.161C393.763,404.853 395.113,404.545 396.462,404.238C398.555,403.697 401.131,403.046 401.538,402.943C412.258,403.043 412.525,403.012 413.474,402.906C415.982,403.614 415.908,403.703 418.458,403.897C422.321,404.924 422.264,405.026 422.599,405.107C429.535,407.438 437.424,408.938 449.418,419.591C465.662,434.275 467.203,449.975 467.5,452.999Z" style="fill:rgb(166,114,79);fill-opacity:1;"/>
        <path d="M978.5,452.999L972.5,452.999C972.354,450.745 971.661,440.028 960.648,427.371C959.185,425.765 959.242,425.83 957.717,424.29C956.692,423.3 956.745,423.347 955.639,422.345C953.932,420.864 949.288,417.579 948.725,417.181C940.155,411.119 927.445,408.937 925.493,408.602C918.975,408.33 919.049,408.156 912.512,408.631C907.454,409.516 907.484,409.339 902.577,410.73L899.584,411.775C892.649,414.233 881.564,420.383 873.655,426.7C850.838,444.924 828.651,450.3 819.551,448.385C810.377,446.455 832.407,448.25 853.715,434.825C880.379,418.025 877.949,413.281 900.39,406.138C904.451,404.848 904.38,404.99 908.461,404.195C911.058,403.587 910.981,403.6 913.534,402.975C914.404,403.069 917.222,403.37 924.482,402.947C926.948,403.619 926.871,403.707 929.453,403.919C943.839,407.509 946.951,410.464 948.319,410.812C950.256,411.305 954.672,414.581 955.188,414.964C973.976,428.902 977.908,446.224 978.648,449.479C978.598,450.653 978.549,451.826 978.5,452.999Z" style="fill:rgb(166,114,79);fill-opacity:1;"/>
        <path d="M666.5,452.999L663.5,452.999C654.586,428.605 618.053,443.008 611.5,452.999L593.5,452.999C615.906,415.769 666.696,423.516 666.701,448.494C666.701,449.997 666.5,451.496 666.5,452.999Z" style="fill:rgb(113,70,53);fill-opacity:1;"/>
        <path d="M154.5,452.999L151.5,452.999C147.76,441.764 132.473,433.404 109.261,445.041C98.604,450.384 99.561,451.651 98.5,452.999L81.5,452.999C81.782,451.131 82.68,445.178 97.722,435.843C121.613,421.016 154.084,424.605 154.395,451.492C154.401,451.995 154.494,452.495 154.5,452.999Z" style="fill:rgb(113,70,53);fill-opacity:1;"/>
        <path d="M838.5,0L849.5,0C849.866,2.729 848.413,4.703 856.034,18.752C860.75,27.446 861.145,27.144 866.019,35.761C882.77,65.372 868.819,90.878 853.393,104.369C852.516,105.113 845.378,111.168 841.494,112.438C828.685,116.628 867.601,96.527 867.146,65.512C866.766,39.689 847.835,36.498 838.5,0Z" style="fill:rgb(111,66,49);fill-opacity:1;"/>
        <path d="M330.092,8.013C332.859,-0.815 338.846,1.612 340.368,8.289C342.564,32.684 364.818,39.35 359.745,69.531C356.666,87.853 348.525,95.712 342.33,102.323C338.274,106.641 327.704,113.555 326.802,112.305C326.065,111.283 346.927,93.696 351.273,80.422C363.395,43.395 328.549,33.038 330.092,8.013Z" style="fill:rgb(110,66,49);fill-opacity:1;"/>
        <path d="M566.5,0L570.5,0C566.8,19.124 558.38,22.583 578.884,51.229C578.986,51.371 596.666,71.265 583.056,91.224C567.845,113.531 535.292,93.604 515.551,109.566C514.331,110.552 503.843,121.042 507.639,114.561C523.564,87.374 556.392,103.582 571.275,94.144C573.484,92.743 588.806,83.026 580.139,62.673C575.71,52.269 552.743,35.998 563.904,6.65C564.107,6.117 564.096,6.158 566.5,0Z" style="fill:rgb(161,106,73);fill-opacity:0.99;"/>
        <path d="M75.5,452.999L64.5,452.999C64.918,451.939 66.846,447.051 71.951,440.862C104.812,401.026 157.326,411.075 157.89,442.6C158.112,454.983 157.625,432.195 141.375,425.81C110.892,413.833 78.35,442.607 75.5,452.999Z" style="fill:rgb(251,197,128);fill-opacity:1;"/>
        <path d="M52.5,0L57.5,0C45.764,32.983 57.796,37.809 70.051,57.785C80.41,74.671 74.272,98.25 50.463,102.308C24.889,106.666 21.365,95.407 0,111.5L0,106.5C0.426,106.28 1.012,106.659 1.438,106.439C1.878,106.212 3.511,103.627 9.671,100.875C30.133,91.734 60.576,107.197 68.305,81.442C75.938,56.011 39.95,44.969 48.648,12.546C50.359,6.166 51.031,6.449 52.5,0Z" style="fill:rgb(160,106,74);fill-opacity:1;"/>
        <path d="M588.5,452.999L577.5,452.999C591.353,414.843 664.17,395.272 670.079,442.483C671.122,450.81 667.273,440.015 667.165,439.712C657.648,413.021 606,419.268 588.5,452.999Z" style="fill:rgb(165,114,80);fill-opacity:1;"/>
        <path d="M281.479,167.72C282.717,165.29 282.79,165.334 285.304,164.192C288.394,162.789 299.735,157.641 320.456,140.447C356.404,110.618 400.619,122.22 420.219,140.799C458.917,177.481 434.269,217.638 433.573,218.556C428.345,225.447 432.37,216.648 432.461,216.483C443.162,196.965 438.497,180.362 437.099,173.605C436.576,172.017 432.612,159.971 428.31,154.649C426.632,152.574 415.103,138.315 402.481,133.541C351.646,114.316 329.282,140.988 298.304,160.129C291.08,164.593 290.318,163.048 283.406,167.985L281.479,167.72Z" style="fill:rgb(243,226,193);fill-opacity:0.96;"/>
        <path d="M948.712,168.418C946.099,162.309 946.098,162.301 946.033,161.728C945.934,160.859 935.826,145.134 925.246,138.906C873.537,108.464 836.279,144.223 821.233,154.082C805.896,164.132 798.514,166.665 798.509,166.663C795.077,165.67 799.342,163.728 799.577,163.621C832.178,148.776 848.375,115.02 896.545,123.228C945.987,131.653 968.678,182.858 947.823,216.797C937.486,233.617 947.973,212.622 948.152,212.31C955.34,199.773 951.599,178.5 951.089,175.598C950.147,172.374 949.87,172.491 949.822,172.377C949.476,170.319 949.478,170.424 948.712,168.418Z" style="fill:rgb(243,225,192);fill-opacity:0.96;"/>
        <path d="M892.82,392.425C893.019,393.123 893.219,393.82 893.418,394.517C893.739,396.578 893.774,396.502 893.664,398.632C885.147,404.874 889.641,393.816 880.44,381.549C877.914,378.181 853.046,351.313 810.733,381.851C803.701,386.926 788.541,399.394 766.524,403.616C757.073,405.429 743.323,405.018 747.67,402.841C748.461,402.444 761.979,404.854 782.631,394.786C814.676,379.164 816.459,363.148 851.478,361.979C854.964,361.862 864.289,364.47 865.382,364.776C867.559,365.384 867.623,365.015 869.569,366.354C871.528,367.704 875.897,367.899 883.786,376.241C890.277,383.105 889.939,383.416 892.82,392.425Z" style="fill:rgb(167,114,79);fill-opacity:0.99;"/>
        <path d="M220.5,452.999L212.5,452.999C211.499,428.608 204.087,419.448 179.434,410.683C178.732,410.433 155.434,404.901 151.248,385.57C145.906,360.902 171.411,346.98 178.319,348.916C185.725,350.992 166.969,348.402 158.759,367.611C154.272,378.111 156.508,394.188 170.626,402.277C188.854,412.721 216.555,408.122 220.5,452.999Z" style="fill:rgb(144,96,69);fill-opacity:0.99;"/>
        <path d="M1023.999,281.5L1023.999,286.5C1014.276,284.116 1014.27,283.117 1013.677,283.732C1013.021,284.414 1012.829,285.868 1023.999,289.5L1023.999,293.5C1016.269,292.752 1017.034,290.666 994.31,280.935C938.037,256.836 924.996,305.571 921.886,299.378C921.032,297.678 937.948,271.905 959.464,268.293C986.458,263.76 996.691,272.221 1023.999,281.5Z" style="fill:rgb(242,226,194);fill-opacity:0.98;"/>
        <path d="M732.5,452.999L724.5,452.999C723.549,433.057 720.857,421.069 691.4,410.78C686.685,409.133 663.601,403.899 662.618,379.498C661.567,353.38 694.882,344.48 691.151,350.174C690.703,350.858 674.182,352.687 669.171,372.42C667.306,379.767 670.243,393.807 678.858,400.026C698.003,413.848 729.66,407.076 732.5,452.999Z" style="fill:rgb(145,96,69);fill-opacity:0.99;"/>
        <path d="M380.131,385.693C381.445,388.306 381.182,388.325 382.765,393.445C383.141,395.044 383.027,394.953 383.387,396.512C383.386,397 383.379,401.85 378.592,400.272C377.076,399.772 373.951,365.859 336.502,367.6C301.074,369.248 289.848,405.456 239.475,404.68C235.703,404.622 235.174,402.749 236.562,402.706C270.32,401.654 276.672,393.176 306.237,373.107C344.815,346.921 376.058,374.405 378.324,382.609C378.487,383.198 379.973,385.454 380.131,385.693Z" style="fill:rgb(166,114,78);fill-opacity:0.99;"/>
        <path d="M966.5,452.999L959.5,452.999C956.804,444.091 956.883,444.085 951.817,436.211C950.001,433.97 939.573,421.1 918.498,422.436C901.25,423.53 891.602,429.523 881.221,437.126C864.83,449.129 855.931,449.811 850.5,452.999L821.5,452.999C821.925,452.783 822.079,452.197 822.504,451.981C826.582,449.908 843.792,459.942 881.641,431.702C886.186,428.311 920.901,402.41 952.405,427.625C957.32,431.559 961.469,438.648 962.281,439.631C962.581,440.853 964.386,444.633 965.33,447.553L965.777,449.415C965.819,449.554 965.813,449.551 966.5,452.999Z" style="fill:rgb(165,113,80);fill-opacity:1;"/>
        <path d="M454.5,452.999L447.5,452.999C442.874,422.064 405.914,412.488 374.81,433.952C371.392,436.311 357.324,447.149 342.518,451.567C340.872,452.058 341.032,452.272 339.5,452.999L309.5,452.999C309.932,452.778 310.122,452.215 310.554,451.995C310.608,451.967 326.741,452.627 335.394,450.128C354.182,444.703 360.461,438.769 372.809,429.923C399.648,410.696 429.453,412.696 447.286,434.666C449.587,437.502 449.09,437.713 451.27,440.612C452.279,442.608 452.864,444.939 452.961,445.328C453.297,446.346 453.633,447.364 453.969,448.382C454.53,450.72 454.441,450.629 454.5,452.999Z" style="fill:rgb(165,114,79);fill-opacity:1;"/>
        <path d="M932.5,0L945.5,0C938.797,9.384 902.164,38.811 922.205,97.593C925.043,105.918 925.668,105.545 927.366,109.537C928.077,111.207 924.727,112.374 921.945,106.304C900.23,58.927 915.641,29.471 918.71,23.604C926.289,9.118 928.516,10.346 932.5,0Z" style="fill:rgb(162,107,74);fill-opacity:1;"/>
        <path d="M419.5,0L431.5,0C431.244,0.392 431.631,1.007 431.375,1.4C430.74,2.373 429.731,3.043 428.951,3.904C428.54,4.359 423.867,9.917 423.426,10.441C382.618,58.974 415.357,108.131 414.301,110.453C413.978,111.162 411.537,113.207 407.47,103.513C381.545,41.719 414.116,11.617 419.5,0Z" style="fill:rgb(162,107,74);fill-opacity:1;"/>
        <path d="M984.5,452.999L981.5,452.999C981.095,450.847 980.69,448.695 980.285,446.544C972.057,413.908 938.315,404.315 933.386,402.914C930.391,402.337 930.493,402.346 927.551,402.236C919.209,400.633 919.22,400.898 909.571,401.913C907.905,402.224 906.239,402.535 904.573,402.846C904.012,402.991 900.592,403.873 897.606,404.81C883.345,411.241 883.706,412.03 882.374,412.294C881.742,412.419 874.956,417.774 874.327,418.27C872.106,420.023 871.928,419.659 871.744,419.814C869.52,421.688 854.459,434.385 840.486,438.373C839.94,438.529 836.887,436.707 842.638,433.798C870.8,419.554 867.338,413.37 896.579,401.678C927.904,389.153 982.348,408.922 984.5,452.999Z" style="fill:rgb(244,225,191);fill-opacity:0.95;"/>
        <path d="M582.738,288.742C584.408,287.146 585.316,287.222 585.571,287.243C586.092,287.287 588.462,288.243 583.408,293.414C551.979,325.569 502.723,297.817 493.487,294.536C449.177,278.791 436.904,297.228 427.61,301.752C418.967,305.958 433.008,291.732 445.579,287.748C481.791,276.269 494.029,295.725 535.461,304.656C544.833,306.676 560.472,303.412 562.663,301.918C563.874,301.092 564.006,301.632 565.312,301.056C574.589,296.962 581.537,289.954 582.738,288.742Z" style="fill:rgb(109,66,46);fill-opacity:0.99;"/>
        <path d="M473.5,452.999L469.5,452.999C469.789,447.916 465.89,430.24 449.316,416.742C448.46,416.044 448.473,416.18 447.563,415.429C439.035,408.414 427.275,404.514 425.376,403.884C424.058,403.537 422.74,403.191 421.422,402.845C420.123,402.67 418.824,402.495 417.525,402.32C407.613,400.401 407.626,400.822 397.603,401.974C396.273,402.277 394.943,402.58 393.613,402.883C392.276,403.243 390.939,403.604 389.602,403.964C378.03,407.234 370.766,412.2 363.366,418.316C361.392,419.948 361.36,419.748 359.411,421.383C356.103,424.159 346.425,430.375 345.27,431.117C341.318,433.655 320.459,443.034 327.918,435.896C329.978,433.924 331.565,436.418 358.179,417.071C368.482,409.582 404.767,379.356 453.192,414.927C469.775,427.109 472.321,445.388 472.749,448.465C473.07,450.768 473.113,450.659 473.5,452.999Z" style="fill:rgb(243,225,191);fill-opacity:0.95;"/>
        <path d="M103.5,0L117.5,0C95.308,18.046 94.443,25.615 99.63,48.474C104.438,69.659 100.358,72.458 96.72,82.673C95.953,84.827 93.746,84.726 94.493,82.499C101.576,61.359 86.369,47.997 89.292,30.471C93.157,7.29 101.83,6.913 103.5,0Z" style="fill:rgb(243,228,198);fill-opacity:0.99;"/>
        <path d="M617.5,0L630.5,0C626.753,5.581 625.338,4.064 619.743,9.732C598.052,31.701 622.948,50.153 611.975,78.824C611.787,79.315 609.622,84.972 608.512,84.407C606.091,83.174 614.461,81.209 605.175,50.607C595.302,18.068 617.049,3.368 617.483,1.484C617.594,1.002 617.389,0.482 617.5,0Z" style="fill:rgb(244,228,199);fill-opacity:0.99;"/>
        <path d="M200.5,0L205.5,0C205.344,2.268 205.656,2.22 205.195,4.434C196.662,45.404 149.732,24.703 113.278,67.258C106.03,75.718 112.398,64.703 112.528,64.516C143.947,19.074 191.557,42.799 200.5,0Z" style="fill:rgb(251,197,128);fill-opacity:0.99;"/>
        <path d="M713.5,0L719.5,0C711.087,49.516 666.87,20.359 626.267,68.243C620.72,74.784 626.212,57.895 646.829,43.962C673.219,26.128 706.059,36.203 713.5,0Z" style="fill:rgb(161,107,73);fill-opacity:0.99;"/>
        <path d="M227.965,405.966C235.226,404.348 257.18,416.587 302.159,385.019C306.616,381.891 335.751,357.582 363.838,378.152C364.177,378.401 371.456,383.731 366.451,382.718C363.292,382.079 344.876,359.176 310.803,384.904C301.356,392.038 273.014,415.182 236.581,410.042C229.493,409.042 228.304,406.649 227.965,405.966Z" style="fill:rgb(115,72,51);fill-opacity:0.99;"/>
        <path d="M774.571,408.931C745.174,414.595 736.83,405.036 741.513,405.701C805.084,414.725 814.899,360.597 859.524,371.391C870.795,374.117 882.256,384.34 876.469,382.623C872.215,381.361 853.529,359.815 819.853,384.974C805.281,395.862 791.764,405.856 774.571,408.931Z" style="fill:rgb(116,72,52);fill-opacity:0.99;"/>
        <path d="M757.5,452.999L747.5,452.999C749.518,413.932 718.167,400.437 716.878,396.439C715.222,391.305 737.396,401.876 749.011,421.779C758.454,437.959 757.664,450.416 757.5,452.999Z" style="fill:rgb(242,225,193);fill-opacity:0.97;"/>
        <path d="M245.5,452.999L235.5,452.999C235.558,446.979 235.596,447.016 235.563,446.497C233.336,411.501 203.405,398.237 205.535,395.529C207.72,392.749 244.865,411.561 245.5,452.999Z" style="fill:rgb(241,225,193);fill-opacity:0.97;"/>
        <path d="M970.5,452.999L967.5,452.999C967.244,450.133 967.213,450.21 966.454,447.511C966.234,445.827 966.158,445.958 965.532,444.486C964.221,441.784 964.588,441.68 962.448,437.528C961.526,436.375 961.389,434.732 956.533,429.471C950.938,423.409 950.107,424.589 948.541,423.446C948.411,423.351 948.822,423.052 947.288,421.869C944.748,419.911 923.799,409.767 902.512,416.538C884.414,422.296 856.479,447.611 852.648,444.242C850.727,442.554 855.119,444.608 878.828,425.899C887.203,419.29 894.79,415.872 901.639,412.846C903.598,412.609 903.527,412.721 905.41,412.136C915.066,410.154 924.616,407.089 946.191,417.992C952.128,420.992 957.912,427.286 958.791,428.242C965.271,435.292 964.976,435.543 968.414,444.531C968.73,445.356 968.676,445.338 970.5,452.999Z" style="fill:rgb(244,225,190);fill-opacity:0.93;"/>
        <path d="M852.46,355.845C861.065,358.211 861.349,357.142 867.348,359.877C875.543,363.614 877.854,365.644 878.636,366.331C882.836,370.021 883.333,369 883.682,369.314C883.938,369.544 883.444,370.069 883.648,370.346C883.782,370.528 883.903,370.373 885.685,372.3C887.659,374.434 887.68,374.31 889.512,376.491C892.215,379.581 891.775,379.762 893.608,383.464C897.994,392.531 896.964,397.383 894.931,398.5C894.559,398.704 894.036,398.427 893.664,398.632C893.774,396.502 893.739,396.578 893.418,394.517C893.497,394.139 893.978,393.93 894.057,393.552C894.464,391.606 893.119,390.716 893.095,390.643C893.131,390.246 893.432,387 892.184,385.743C890.164,383.708 890.285,381.402 889.348,380.609C888.791,380.138 888.677,380.294 888.517,379.488C888.261,378.196 886.599,376.78 886.38,376.594C882.074,372.928 882.506,372.603 878.241,368.952C876.947,367.844 868.415,363.762 867.544,363.345C862.072,360.727 839.518,355.161 819.752,366.914C810.054,372.681 807.571,375.413 800.802,379.99C792.877,385.349 792.902,385.262 782.609,390.856C782.567,390.166 781.359,389.926 781.317,389.237C781.316,389.227 789.922,384.489 792.64,382.697C810.078,371.194 811.518,366.21 824.577,360.648C832.079,356.944 832.339,357.916 840.474,356.163C846.513,355.727 846.45,355.806 852.46,355.845Z" style="fill:rgb(243,224,187);fill-opacity:0.89;"/>
        <path d="M458.5,452.999L456.5,452.999C456.223,450.667 456.173,450.74 455.585,448.468C455.233,447.476 454.88,446.484 454.528,445.492C454.175,443.843 454.121,443.965 453.48,442.51C452.524,440.445 452.549,440.499 451.581,438.452C451.289,438.179 451.502,438.111 448.687,434.375C443.082,426.939 442.65,427.464 435.339,421.749C434.78,421.312 434.73,421.629 427.411,417.769C423.309,415.605 422.924,416.966 418.56,415.24C417.325,414.752 403.226,412.935 391.501,416.502C374.082,421.802 342.135,450.001 342.224,443.571C342.262,440.795 345.075,443.319 370.734,423.787C382.785,414.613 393.767,412.315 394.385,412.124C398.754,411.069 425.751,404.554 447.952,429.058C456.202,438.165 457.712,446.776 458.774,451.464L458.5,452.999Z" style="fill:rgb(244,225,190);fill-opacity:0.94;"/>
        <path d="M331.544,355.811C337.558,356.216 337.501,355.761 343.467,355.825C347.884,357.09 347.825,357.071 352.396,357.832C355.83,359.481 355.912,359.157 359.303,360.818C371.689,366.885 371.508,370.3 375.647,370.358C375.685,372.189 375.671,372.178 375.688,372.335C375.745,372.843 378.602,373.958 384.614,386.459C385.055,387.107 385.496,387.755 385.937,388.402C386.01,395.37 387.297,399.812 385.5,398.535C385.179,398.307 385.25,397.728 384.929,397.5L383.387,396.512C383.027,394.953 383.141,395.044 382.765,393.445C382.853,392.912 383.656,388.034 382.182,386.719C381.957,386.518 381.439,386.878 381.282,386.62C381.148,386.4 381.812,386.273 380.49,383.506C378.901,381.82 380.133,381.058 378.333,379.616C377.718,379.123 377.634,379.256 377.488,378.508C377.245,377.257 375.54,375.827 375.319,375.642C375.099,375.458 374.655,375.745 374.463,375.531C374.255,375.298 374.62,374.8 374.383,374.598C374.129,374.382 373.608,374.858 373.384,374.612C372.773,373.939 373.724,373.632 373.057,372.962C372.393,372.296 372.128,373.109 371.491,372.51C371.366,372.393 371.774,372.15 370.362,370.696C370.083,370.408 362.081,365.315 361.651,365.231C361.068,365.118 357.275,362.562 347.54,360.313C320.09,353.97 291.939,379.422 289.322,381.221C288.032,382.107 271.488,393.476 271.618,389.549C271.651,388.547 279.472,386.188 294.374,374.343C311.89,360.42 319.195,359.323 320.59,358.734C321.58,358.403 322.571,358.071 323.561,357.739C327.626,357.043 327.546,357.014 331.544,355.811Z" style="fill:rgb(244,223,186);fill-opacity:0.89;"/>
        <path d="M849.5,0L854.5,0C856.3,21.147 875.693,33.881 875.817,56.49C875.888,69.208 875.728,76.88 867.172,93.301C865.475,96.559 861.789,99.536 861.13,101.014C860.934,101.196 860.739,101.378 860.543,101.56C859.881,102.305 859.219,103.05 858.557,103.794C856.324,104.054 856.362,104.093 854.5,105.392L853.393,104.369C868.819,90.878 882.77,65.372 866.019,35.761C861.145,27.144 860.75,27.446 856.034,18.752C848.413,4.703 849.866,2.729 849.5,0Z" style="fill:rgb(240,214,174);fill-opacity:0.73;"/>
        <path d="M871.5,452.999L858.5,452.999C894.284,435.762 901.912,421.744 926.528,425.232C937.555,426.794 947.077,434.199 948.612,435.393C949.712,436.248 949.403,436.371 949.604,437.828C948.079,437.04 948.022,437.337 946.623,436.287C915.68,413.07 887.916,444.276 873.382,451.256C872.122,451.861 872.453,452.116 871.5,452.999Z" style="fill:rgb(116,71,51);fill-opacity:0.99;"/>
        <path d="M360.5,452.999L347.5,452.999C386.107,434.525 383.235,426.668 406.566,424.931C427.357,423.383 444.027,440.229 437.428,437.718C429.753,434.797 412.524,413.364 375.342,443.285C374.094,444.289 367.567,448.571 362.371,451.239C361.855,451.504 361.209,451.558 360.787,451.955C360.524,452.202 360.763,452.752 360.5,452.999Z" style="fill:rgb(116,72,51);fill-opacity:0.99;"/>
        <path d="M490.5,452.999L482.5,452.999C482.019,449.544 479.339,430.312 458.325,416.711C457.308,416.053 456.679,416.734 456.477,415.515C456.239,414.083 456.149,413.41 457.479,413.825C481.908,421.438 487.868,436.427 490.793,450.44C490.836,450.642 490.772,450.629 490.5,452.999Z" style="fill:rgb(115,71,53);fill-opacity:0.99;"/>
        <path d="M1023.999,296.5L1023.999,300.5C1023.494,300.349 1022.931,300.816 1022.425,300.665C1021.259,300.315 1021.529,299.856 1008.333,294.902C959.386,276.527 945.414,302.284 940.403,301.897C939.961,301.863 937.945,300.773 942.88,296.949C977.743,269.934 1013.975,294.589 1023.999,296.5Z" style="fill:rgb(109,67,47);fill-opacity:0.99;"/>
        <path d="M513.5,452.999L508.5,452.999C506.761,441.181 505.617,434.132 496.123,418.743C487.394,404.595 475.713,395.956 473.578,394.376C471.768,393.038 473.667,392.018 473.668,392.011C510.34,414.475 513.024,447.191 513.5,452.999Z" style="fill:rgb(165,115,81);fill-opacity:1;"/>
        <path d="M0,303.5L0,298.5C2.872,299.155 35.412,313.99 59.598,296.644C60.168,296.235 60.082,296.253 60.683,295.767C62.562,294.056 62.773,294.427 64.692,292.746C70.425,287.439 70.823,287.421 71.517,287.39C78.67,287.067 52.468,318.365 11.589,306.259C2.365,303.527 2.456,303.227 1.628,303.117C1.075,303.043 0.552,303.574 0,303.5Z" style="fill:rgb(108,64,45);fill-opacity:1;"/>
        <path d="M1023.999,438.5L1023.999,452.999C1023.05,453.677 1021.449,452.321 1020.5,452.999C1016.434,424.449 1006.42,412.345 984.317,392C984.939,391.843 986.804,391.371 991.607,395.337C1017.84,416.995 1018.632,429.742 1023.999,438.5Z" style="fill:rgb(164,115,82);fill-opacity:0.99;"/>
        <path d="M1023.999,390.5L1023.999,401.5C1023.439,401.53 1022.951,400.973 1022.391,401.003C1020.832,401.087 1008.542,405.929 994.204,394.755C987.729,389.709 1007.885,395.866 1020.52,391.553C1022.332,390.935 1022.256,391.028 1023.999,390.5Z" style="fill:rgb(241,225,192);fill-opacity:0.97;"/>
        <path d="M1003.5,452.999L994.5,452.999C995.248,446.242 991.159,440.003 987.351,433.582C988.641,429.697 988.417,429.691 990.578,426.134L991.552,426.457C999.522,436.025 1001.177,442.007 1003.5,452.999Z" style="fill:rgb(113,70,52);fill-opacity:1;"/>
        <path d="M660.5,452.999L655.5,452.999C654.516,452.569 654.982,451.243 648.513,451.01C647.893,450.988 647.497,450.872 645.516,450.992C637.461,451.481 637.745,452.63 636.5,452.999L621.5,452.999C621.727,452.595 621.366,452.017 621.593,451.613C623.12,448.895 650.923,437.31 660.5,452.999Z" style="fill:rgb(241,225,194);fill-opacity:0.98;"/>
        <path d="M147.5,452.999L142.5,452.999C137.728,449.586 137.348,450.466 131.525,450.909C123.87,451.492 124.198,452.716 123.5,452.999L108.5,452.999C108.671,452.735 107.839,452.034 111.706,449.845C130.288,439.328 146.059,448.622 147.398,451.588C147.592,452.018 147.306,452.569 147.5,452.999Z" style="fill:rgb(240,224,193);fill-opacity:0.98;"/>
        <path d="M1014.5,452.999L1009.5,452.999C1009.298,450.215 1007.901,431.004 999.437,419.585C1001.366,418.16 1002.505,416.634 1002.726,416.338C1016.886,438.181 1014.725,449.116 1014.5,452.999Z" style="fill:rgb(163,113,81);fill-opacity:1;"/>
        <path d="M719.5,452.999L713.5,452.999C713.389,450.978 713.941,444.298 710.338,437.588C709.257,435.576 705.253,430.524 700.308,427.739C691.534,422.798 702.376,426.205 702.569,426.298C718.657,434.01 718.334,442.854 719.5,452.999Z" style="fill:rgb(164,115,80);fill-opacity:0.99;"/>
        <path d="M206.5,452.999L201.5,452.999C199.845,429.18 191.607,430.625 184.817,426.049C179.45,422.432 187.229,424.846 187.448,424.914C194.134,426.99 201.068,433.777 202.076,434.764C206.564,443.304 207.134,443.37 206.5,452.999Z" style="fill:rgb(164,115,81);fill-opacity:0.99;"/>
        <path d="M59.5,452.999L55.5,452.999C55.578,452.425 54.635,452.003 55.941,449.758C62.153,439.069 67.423,433.851 74.661,427.703C87.649,416.671 99.598,414.28 91.737,418.69C72.985,429.208 60.337,446.216 59.5,452.999Z" style="fill:rgb(162,113,76);fill-opacity:0.95;"/>
        <path d="M572.5,452.999L567.5,452.999C579.63,422.847 624.081,407.113 598.834,421.945C585.956,429.51 573.561,447.305 572.331,451.419C572.179,451.927 572.652,452.492 572.5,452.999Z" style="fill:rgb(163,114,76);fill-opacity:0.96;"/>
        <path d="M946.5,452.999L920.5,452.999C926.66,441.626 942.027,445.229 946.5,452.999Z" style="fill:rgb(112,68,51);fill-opacity:1;"/>
        <path d="M434.5,452.999L409.5,452.999C411.249,448.778 411.394,448.618 415.687,446.984C419.957,445.359 425.58,446.632 426.418,446.822C431.919,448.068 434.123,452.278 434.5,452.999Z" style="fill:rgb(112,69,52);fill-opacity:0.99;"/>
        <path d="M974.476,415.054C982.978,419.564 987.714,423.308 988.778,424.148L989.493,425.633L990.578,426.134C988.417,429.691 988.641,429.697 987.351,433.582C985.63,431.215 985.428,431.447 984.023,428.867C983.789,427.791 983.554,426.714 983.32,425.638C982.94,425.089 979.603,420.266 977.305,419.854C977.161,419.828 977.201,419.94 975.899,421.026C972.341,417.962 971.981,418.547 968.398,415.579C964.668,412.49 974.004,414.93 974.476,415.054Z" style="fill:rgb(176,150,139);fill-opacity:0.99;"/>
        <path d="M0,194.5L0,160.5C0.164,160.866 0.977,160.572 2.003,166.58C2.15,167.444 2.998,172.412 2.914,177.5C2.673,192.231 0.29,193.852 0,194.5Z" style="fill:rgb(159,104,70);fill-opacity:1;"/>
        <path d="M1023.999,121.5L1023.999,133.5C1023.726,133.783 1023.133,133.524 1022.86,133.806C1021.5,135.214 1021.205,137.291 1020.621,135.406C1018.888,129.813 1018.567,128.939 1019.79,126.652C1022.5,121.582 1023.269,122.255 1023.999,121.5Z" style="fill:rgb(161,109,76);fill-opacity:1;"/>
        <path d="M975.899,421.026C977.201,419.94 977.161,419.828 977.305,419.854C979.603,420.266 982.94,425.089 983.32,425.638C983.235,426.379 983.15,427.121 983.066,427.862C979.678,424.234 976.503,421.539 975.899,421.026Z" style="fill:rgb(129,86,61);fill-opacity:0.9;"/>
        <path d="M400.508,408.603C407.044,408.206 406.987,408.343 413.498,408.531C412.62,409.087 408.015,411.999 400.508,408.603Z" style="fill:rgb(194,156,114);fill-opacity:0.34;"/>
        <path d="M912.512,408.631C919.049,408.156 918.975,408.33 925.493,408.602C920.013,410.807 917.028,410.428 912.512,408.631Z" style="fill:rgb(191,152,109);fill-opacity:0.31;"/>
        <path d="M1.5,452.999C1.388,452.512 0.112,453.486 0,452.999C-0.487,450.888 0,448.666 0,446.5L0,442.5C0.369,443.36 1.017,443.089 1.657,447.475C2.295,451.852 1.518,452.829 1.5,452.999Z" style="fill:rgb(166,117,80);fill-opacity:0.87;"/>
        <path d="M1023.999,111.5L1023.999,115.5C1022.498,116.075 1022.689,116.256 1021.302,117.128C1020.73,117.488 1019.802,116.726 1019.817,116.456C1019.937,114.247 1020.642,114.601 1023.999,111.5Z" style="fill:rgb(164,120,79);fill-opacity:0.61;"/>
        <path d="M962.448,437.528C964.588,441.68 964.221,441.784 965.532,444.486C965.464,445.508 965.397,446.531 965.33,447.553C964.386,444.633 962.581,440.853 962.281,439.631C962.337,438.93 962.392,438.229 962.448,437.528Z" style="fill:rgb(197,159,118);fill-opacity:0.45;"/>
        <path d="M486.503,303.479C487.794,303.617 489.085,303.755 490.376,303.893C488.429,304.644 488.486,304.622 486.47,304.619C484.145,304.437 481.821,304.256 479.497,304.074C482.983,303.492 482.902,303.607 486.503,303.479Z" style="fill:rgb(211,180,140);fill-opacity:0.59;"/>
        <path d="M879.497,109.429C882.832,109.439 886.167,109.449 889.502,109.459C884.991,110.407 885.027,110.748 880.478,110.089C880.088,110.032 879.887,109.486 879.497,109.429Z" style="fill:rgb(227,200,158);fill-opacity:0.37;"/>
        <path d="M367.499,109.482C370.833,109.477 374.167,109.472 377.502,109.467C372.491,110.332 372.501,110.331 367.499,109.482Z" style="fill:rgb(228,201,160);fill-opacity:0.38;"/>
        <path d="M948.712,168.418C949.478,170.424 949.476,170.319 949.822,172.377C949.521,173.392 949.22,174.406 948.92,175.42C948.532,174.086 948.144,172.752 947.756,171.417C948.541,169.959 948.425,169.995 948.712,168.418Z" style="fill:rgb(210,173,132);fill-opacity:0.36;"/>
        <path d="M490.376,303.893C494.254,305.217 494.17,305.362 494.508,305.466C493.164,305.515 491.82,305.565 490.475,305.614C488.391,305.271 488.497,305.21 486.47,304.619C488.486,304.622 488.429,304.644 490.376,303.893Z" style="fill:rgb(207,175,137);fill-opacity:0.55;"/>
        <path d="M587.145,191.482C587.479,196.541 587.41,196.477 587.124,201.509C586.623,196.472 586.623,196.521 587.145,191.482Z" style="fill:rgb(177,132,92);fill-opacity:0.48;"/>
        <path d="M5.367,313.889C5.574,313.982 5.396,314.194 8.401,314.907C7.49,315.3 6.579,315.694 5.668,316.088C3.975,315.431 4.145,315.218 2.476,314.56C3.957,314.344 3.916,314.422 5.367,313.889Z" style="fill:rgb(207,175,134);fill-opacity:0.42;"/>
        <path d="M1023.999,218.5L1023.999,224.5C1023.458,222.929 1022.97,223.124 1022.965,221.497C1022.96,219.857 1023.462,220.056 1023.999,218.5Z" style="fill:rgb(162,121,82);fill-opacity:0.6;"/>
        <path d="M518.494,315.514C520.507,315.401 520.437,315.539 522.519,315.413L524.413,315.824C523.505,316.22 522.598,316.615 521.69,317.011C521.428,316.907 521.527,316.714 518.494,315.514Z" style="fill:rgb(203,168,131);fill-opacity:0.51;"/>
        <path d="M1004.538,304.402C1005.52,304.786 1006.503,305.17 1007.485,305.553C1006.489,305.542 1005.492,305.53 1004.496,305.519C1003.193,305.362 1001.89,305.206 1000.587,305.05C1002.567,304.544 1002.527,304.637 1004.538,304.402Z" style="fill:rgb(209,177,139);fill-opacity:0.6;"/>
        <path d="M1010.351,305.901C1014.271,307.322 1014.137,307.464 1014.478,307.568C1013.152,307.543 1011.827,307.519 1010.502,307.495C1009.504,307.154 1008.507,306.814 1007.51,306.474C1009.023,306.462 1008.943,306.438 1010.351,305.901Z" style="fill:rgb(204,169,131);fill-opacity:0.6;"/>
        <path d="M515.529,314.425C518.358,314.389 518.282,314.456 518.521,314.448C519.854,314.77 521.186,315.091 522.519,315.413C520.437,315.539 520.507,315.401 518.494,315.514C517.506,315.151 516.517,314.788 515.529,314.425Z" style="fill:rgb(201,165,128);fill-opacity:0.62;"/>
        <path d="M0,314.5L0,313.5C1.169,313.489 2.339,313.478 3.508,313.468L5.367,313.889C3.916,314.422 3.957,314.344 2.476,314.56C1.65,314.54 0.825,314.52 0,314.5Z" style="fill:rgb(209,177,137);fill-opacity:0.53;"/>
        <path d="M597.002,207.514L597.536,210.492C597.514,212.347 597.507,212.335 597.512,212.496C597.53,213.01 597.625,212.91 597.643,213.442C596.898,211.814 596.639,212.024 595.951,210.349L597.002,207.514Z" style="fill:rgb(210,175,134);fill-opacity:0.44;"/>
        <path d="M453.48,442.51C454.121,443.965 454.175,443.843 454.528,445.492C454.342,446.456 454.156,447.419 453.969,448.382C453.633,447.364 453.297,446.346 452.961,445.328C453.417,443.899 453.34,443.942 453.48,442.51Z" style="fill:rgb(200,162,122);fill-opacity:0.48;"/>
        <path d="M1023.999,310.5L1023.999,311.5L1021.488,311.526C1019.906,311.192 1020.018,311.131 1018.525,310.44C1021.295,310.47 1021.272,310.489 1021.51,310.478C1022.34,310.485 1023.169,310.493 1023.999,310.5Z" style="fill:rgb(198,162,124);fill-opacity:0.62;"/>
        <path d="M0,361.5L0,356.5C0.06,356.615 1.046,356.982 1.043,358.508C1.04,360.195 0.534,359.969 0,361.5Z" style="fill:rgb(143,102,58);fill-opacity:0.35;"/>
        <path d="M1004.496,305.519C1005.492,305.53 1006.489,305.542 1007.485,305.553C1008.929,305.654 1008.857,305.632 1010.351,305.901C1008.943,306.438 1009.023,306.462 1007.51,306.474C1006.505,306.156 1005.5,305.837 1004.496,305.519Z" style="fill:rgb(204,170,132);fill-opacity:0.62;"/>
        <path d="M496.486,307.545C498.584,307.468 498.476,307.421 500.487,307.545C501.171,307.836 501.854,308.127 502.538,308.419C499.66,308.485 499.667,308.479 499.501,308.497C498.496,308.179 497.491,307.862 496.486,307.545Z" style="fill:rgb(207,173,132);fill-opacity:0.54;"/>
        <path d="M1010.502,307.495C1011.827,307.519 1013.152,307.543 1014.478,307.568C1015.155,307.871 1015.833,308.174 1016.511,308.477C1015.971,308.495 1016.072,308.344 1015.551,308.361C1015.385,308.367 1015.398,308.373 1013.489,308.527C1012.493,308.183 1011.497,307.839 1010.502,307.495Z" style="fill:rgb(205,171,132);fill-opacity:0.59;"/>
        <path d="M956.613,424.38L957.717,424.29C959.242,425.83 959.185,425.765 960.648,427.371C958.305,426.358 958.398,426.307 956.613,424.38Z" style="fill:rgb(196,158,116);fill-opacity:0.4;"/>
        <path d="M1013.489,308.527C1015.398,308.373 1015.385,308.367 1015.551,308.361C1016.072,308.344 1015.971,308.495 1016.511,308.477C1017.499,308.843 1018.487,309.208 1019.475,309.574L1015.524,309.423C1014.846,309.124 1014.167,308.826 1013.489,308.527Z" style="fill:rgb(203,168,129);fill-opacity:0.6;"/>
        <path d="M499.501,308.497C499.667,308.479 499.66,308.485 502.538,308.419C503.522,308.788 504.507,309.158 505.491,309.528C504.507,309.48 503.524,309.432 502.54,309.384C500.912,309.262 500.986,309.156 499.501,308.497Z" style="fill:rgb(207,171,131);fill-opacity:0.56;"/>
        <path d="M504.552,310.376C506.426,310.314 506.414,310.309 506.576,310.309C507.094,310.308 506.992,310.44 507.529,310.439C508.517,310.801 509.505,311.162 510.493,311.524L507.543,311.388C505.93,311.192 506.058,311.106 504.552,310.376Z" style="fill:rgb(207,170,131);fill-opacity:0.6;"/>
        <path d="M1015.524,309.423L1019.475,309.574C1020.154,309.875 1020.832,310.177 1021.51,310.478C1021.272,310.489 1021.295,310.47 1018.525,310.44C1017.525,310.101 1016.524,309.762 1015.524,309.423Z" style="fill:rgb(206,172,134);fill-opacity:0.62;"/>
        <path d="M965.532,444.486C966.158,445.958 966.234,445.827 966.454,447.511C966.228,448.146 966.002,448.78 965.777,449.415L965.33,447.553C965.397,446.531 965.464,445.508 965.532,444.486Z" style="fill:rgb(200,161,121);fill-opacity:0.44;"/>
        <path d="M512.307,311.941C515.329,313.337 515.209,313.479 515.476,313.58C514.833,313.512 514.191,313.443 513.549,313.375C511.468,313.142 511.524,313.213 509.544,312.389C511.015,312.439 510.95,312.382 512.307,311.941Z" style="fill:rgb(209,176,139);fill-opacity:0.67;"/>
        <path d="M456.5,452.999L455.5,452.999C455.531,452.243 455.141,452.345 455.174,451.54C455.184,451.292 455.204,451.312 455.585,448.468C456.173,450.74 456.223,450.667 456.5,452.999Z" style="fill:rgb(209,175,135);fill-opacity:0.42;"/>
        <path d="M507.543,311.388L510.493,311.524C511.097,311.663 511.702,311.802 512.307,311.941C510.95,312.382 511.015,312.439 509.544,312.389C508.877,312.055 508.21,311.721 507.543,311.388Z" style="fill:rgb(204,168,129);fill-opacity:0.57;"/>
        <path d="M502.54,309.384C503.524,309.432 504.507,309.48 505.491,309.528C506.17,309.832 506.849,310.135 507.529,310.439C506.992,310.44 507.094,310.308 506.576,310.309C506.414,310.309 506.426,310.314 504.552,310.376C503.882,310.045 503.211,309.715 502.54,309.384Z" style="fill:rgb(206,169,130);fill-opacity:0.57;"/>
        <path d="M513.549,313.375C514.191,313.443 514.833,313.512 515.476,313.58C517.113,313.745 516.988,313.825 518.521,314.448C518.282,314.456 518.358,314.389 515.529,314.425C514.869,314.075 514.209,313.725 513.549,313.375Z" style="fill:rgb(201,165,129);fill-opacity:0.63;"/>
        <path d="M95.475,236.512C95.817,237.175 96.159,237.837 96.5,238.5C96.481,239.174 96.462,239.849 96.442,240.524C95.759,239.572 95.746,239.632 95.52,238.489L95.475,236.512Z" style="fill:rgb(209,177,137);fill-opacity:0.57;"/>
        <path d="M983.32,425.638C983.554,426.714 983.789,427.791 984.023,428.867C983.704,428.532 983.385,428.197 983.066,427.862C983.15,427.121 983.235,426.379 983.32,425.638Z" style="fill:rgb(138,99,74);fill-opacity:0.84;"/>
        <path d="M597.536,210.492C598.52,214.529 598.519,214.411 598.699,215.421C598.347,214.762 597.995,214.102 597.643,213.442C597.625,212.91 597.53,213.01 597.512,212.496C597.507,212.335 597.514,212.347 597.536,210.492Z" style="fill:rgb(195,159,121);fill-opacity:0.67;"/>
        <path d="M0,313.5L0,312.5C1.169,312.823 2.339,313.145 3.508,313.468C2.339,313.478 1.169,313.489 0,313.5Z" style="fill:rgb(190,152,115);fill-opacity:0.62;"/>
        <path d="M83.646,209.476C84.032,211.384 84.041,211.292 83.896,213.283C83.726,212.705 83.556,212.127 83.385,211.549L83.646,209.476Z" style="fill:rgb(194,156,116);fill-opacity:0.55;"/>
        <path d="M1023.999,311.5L1023.999,312.5C1022.583,312.211 1022.626,312.309 1021.488,311.526L1023.999,311.5Z" style="fill:rgb(213,181,143);fill-opacity:0.6;"/>
        <path d="M955.639,422.345C956.745,423.347 956.692,423.3 957.717,424.29L956.613,424.38C956.288,423.702 955.964,423.024 955.639,422.345Z" style="fill:rgb(192,151,109);fill-opacity:0.46;"/>
        <path d="M967.043,200.416C967.398,202.333 967.494,202.332 967.427,202.487C967.22,202.962 966.384,202.937 966.178,203.413C966.466,202.414 966.755,201.415 967.043,200.416Z" style="fill:rgb(187,142,97);fill-opacity:0.41;"/>
        <path d="M607.668,234.418C607.932,234.786 608.196,235.154 608.46,235.522C608.509,236.168 608.558,236.814 608.608,237.46C608.294,236.446 607.981,235.432 607.668,234.418Z" style="fill:rgb(207,176,138);fill-opacity:0.73;"/>
        <path d="M881.7,366.267C882.815,367.231 882.758,367.182 883.82,368.122C883.319,367.842 883.309,368.432 882.775,368.134C882.625,368.05 882.695,367.995 881.7,366.267Z" style="fill:rgb(169,129,87);fill-opacity:0.42;"/>
        <path d="M769.55,203.186C772.165,202.295 771.893,203.55 772.414,203.762L769.55,203.186Z" style="fill:rgb(227,201,161);fill-opacity:0.52;"/>
        <path d="M323.561,357.739C322.571,358.071 321.58,358.403 320.59,358.734C321.062,358.514 321.017,357.676 321.49,357.455C321.641,357.384 321.643,357.476 323.561,357.739Z" style="fill:rgb(223,195,153);fill-opacity:0.45;"/>
        <path d="M270.243,166.883C270.829,166.875 271.414,166.867 272,166.86C272.713,166.904 273.426,166.949 274.139,166.994C272.164,167.352 272.206,167.217 270.243,166.883Z" style="fill:rgb(150,102,74);fill-opacity:0.88;"/>
        <path d="M785.917,165.851C787.073,166.978 786.977,167.03 787.558,167.247L785.588,167.22C785.698,166.764 785.808,166.307 785.917,165.851Z" style="fill:rgb(164,116,82);fill-opacity:0.75;"/>
        <path d="M71.7,265.726C72.054,265.706 72.146,265.043 72.5,265.024C72.5,265.024 73.218,266.426 73.28,266.548L71.7,265.726Z" style="fill:rgb(218,195,155);fill-opacity:0.53;"/>
        <path d="M590.761,182.584L590.113,185.384C590.329,184.451 590.545,183.517 590.761,182.584Z" style="fill:rgb(223,196,154);fill-opacity:0.47;"/>
        <path d="M976.23,202.499L975.053,201.5C975.12,201.505 975.6,200.265 976.166,201.59C976.286,201.869 976.111,202.22 976.23,202.499Z" style="fill:rgb(226,189,136);fill-opacity:0.1;"/>
    </g>
</svg>
